<svg preserveAspectRatio="xMidYMid meet" viewBox="0 0 375 374.999991" xmlns="http://www.w3.org/2000/svg" zoomAndPan="magnify"><path d="m1.437949 7.165243 27.748105-.001996.000786 6.232368-3.007694.00204c-1.30018-.001719-2.264921.097979-2.910976.295203-.637878.187352-1.050006.568355-1.223919 1.140016-.162744.574254-.244726 1.485047-.245945 2.732378l.000438 31.202221 3.730825.001064c2.826313.044125 5.105893-.091646 6.844324-.406015 1.7496-.311777 3.129662-.932974 4.132011-1.853722 1.006237-.937499 1.759506-2.280942 2.263695-4.047079.499902-1.773018.891822-4.094868 1.170177-6.966845l6.320017.001908.00344 19.503595-44.825343-.002099-.000785-6.232368 2.64204.001344c1.341064-.04764 2.32515-.154616 2.945378-.316641.628405-.171897 1.033652-.548612 1.225614-1.121968.18508-.569069.256292-1.458821.205459-2.659387l.001882-27.105743c.048484-1.248128-.022497-2.159123-.207358-2.731688-.190445-.573861-.597274-.95079-1.230359-1.138963-.619324-.196748-1.597125-.294287-2.938985-.293912l-2.647625-.00264zm0 0" fill="none" stroke="#57311d" stroke-width="1.075889" transform="matrix(.663767 -.154101 .154101 .663767 43.988238 135.059288)"/><path d="m1.577051 55.002195.001702-6.236386 2.940532.001145c1.341683-.045688 2.321193-.150244 2.938531-.313667.619354-.17471 1.020647-.563067 1.208515-1.158421.201169-.604623.274775-1.505724.231095-2.695644l-.003773-27.037981c.047421-1.243526-.02872-2.153906-.228424-2.731138-.183781-.568565-.587457-.949301-1.206391-1.135557-.616918-.197543-1.600651-.297555-2.939913-.29802l-2.940532-.001146-.004949-6.231751 28.26599.000113-.000694 6.230744-2.94154.004497c-1.297744-.004696-2.26496.096233-2.906284.296135-.64495.187607-1.055514.562662-1.228063 1.137458-.165897.570162-.247162 1.481541-.243795 2.73414l-.000861 27.031329c-.003482 1.193142.080318 2.093243.245757 2.699295.173099.595773.582418.977517 1.225941 1.156519.640903.161064 1.612342.264703 2.902022.314545l2.947183-.00349-.001702 6.236386zm0 0" fill="none" stroke="#57311d" stroke-width="1.075889" transform="matrix(.670803 -.119819 .119819 .670803 78.109629 127.336266)"/><path d="m1.437931 7.165501 27.751538-.003252-.000058 6.234318-3.010507.001859c-1.299762-.002057-2.265443.095776-2.909135.297753-.641541.184915-1.047936.567028-1.223437 1.134249-.164843.574342-.244709 1.482957-.246718 2.736502l.001813 31.200747 3.727228-.003961c2.824874.049854 5.106711-.0843 6.845511-.402463 1.749458-.311042 3.127364-.928922 4.13372-1.853642 1.002102-.936812 1.755053-2.280591 2.260288-4.042714.500981-1.774214.892324-4.09959 1.17331-6.970442l6.321065-.000563-.003138 19.505706-44.824808.0005.000058-6.234318 2.646458-.001525c1.34034-.044829 2.324518-.151886 2.939724-.311231.628733-.174974 1.040098-.550683 1.227691-1.122157.187593-.571475.253216-1.458773.208243-2.660462l.001765-27.103783c.048227-1.253498-.021934-2.16369-.209764-2.736264-.188547-.566887-.596995-.947712-1.226061-1.136787-.621946-.199732-1.598093-.293889-2.944073-.295994l-2.640771.002242zm0 0" fill="none" stroke="#57311d" stroke-width="1.075889" transform="matrix(.67607 -.0852201 .0852201 .67607 100.604712 123.200032)"/><path d="m1.437476 54.997854-.001506-6.229941 2.644698-.004052c1.343903-.041374 2.323118-.148056 2.943156-.314103.625982-.171561 1.03586-.546271 1.223689-1.118616.187829-.572346.255506-1.458971.208761-2.659662l.001377-27.105113c.046845-1.248809-.022102-2.163506-.212997-2.732848-.184952-.574855-.595322-.951651-1.224952-1.141629-.617958-.195276-1.595165-.295034-2.937564-.293761l-2.644483-.001676-.001291-6.235671 27.89099.002174c3.539415.000827 6.370931.216035 8.494548.645624 2.134858.435747 3.921636 1.128054 5.359904 2.088379 1.28002.897023 2.301252 2.117059 3.063696 3.660106.768818 1.526077 1.155472 3.146813 1.154021 4.867721.001756 3.011751-1.097855 5.563421-3.293535 7.666681-.768843.768539-1.618886 1.407829-2.555427 1.906196-.91957.504741-2.272215 1.085022-4.046907 1.752728 2.30177.573949 4.037065 1.109438 5.199942 1.611982 1.180062.503189 2.297038 1.158899 3.344768 1.97837 2.53698 2.102955 3.799505 4.995639 3.804548 8.684425-.00382 2.242845-.481957 4.284329-1.440353 6.129964-.952668 1.84585-2.266869 3.236425-3.937306 4.183397-1.634561.908161-3.684865 1.582739-6.144753 2.012491-2.465831.435266-5.70343.646539-9.719169.65079zm20.363186-6.228998 3.797627-.00096c1.961934-.00098 3.550731-.147898 4.766391-.440753 1.221388-.29264 2.219223-.742817 2.993936-1.361986 1.575993-1.334862 2.358598-3.387871 2.359488-6.164324.002751-2.673126-.813393-4.619746-2.448647-5.834131-1.623367-1.225413-4.204758-1.838533-7.738446-1.839145l-3.728885.003539zm-.002049-21.661262 3.241105.00111c3.195277-.000608 5.51668-.561759 6.952752-1.683882 1.436502-1.133579 2.152583-2.942412 2.153971-5.426283-.003769-2.346387-.697613-4.036011-2.087475-5.063359s-3.636711-1.536134-6.740118-1.537816l-3.516502.000033zm0 0" fill="none" stroke="#57311d" stroke-width="1.075889" transform="matrix(.680941 -.0255429 .0255429 .680941 148.577294 117.754365)"/><path d="m1.578112 55.001797-.003347-6.237732 2.941228.004065c1.346501-.050428 2.325242-.152245 2.941772-.317008.622075-.176318 1.022916-.561191 1.208255-1.154712.202348-.605263.273781-1.506539.231586-2.698375l-.001159-27.032299c.042855-1.250543-.029192-2.160967-.227603-2.731086-.187041-.576037-.588739-.953673-1.210919-1.138548-.616726-.202164-1.59871-.300958-2.94022-.296477l-2.941228-.004064-.003254-6.232 28.264998.001851-.002477 6.232093-2.941135.001667c-1.295749-.001991-2.263027.099641-2.907752.293525-.639086.188059-1.051483.567386-1.225729 1.137795-.162689.575955-.245493 1.483149-.242494 2.732951l.001252 27.03803c-.003752 1.186846.079573 2.085621.244243 2.696418.175855.593417.583377.976692 1.22266 1.155558.644736.161578 1.615349.26629 2.906107.314228l2.941136-.001668.003254 6.232001zm0 0" fill="none" stroke="#57311d" stroke-width="1.075889" transform="matrix(.681331 .0110114 -.0110114 .681331 186.05387 116.586292)"/><path d="m47.976974 7.162007-.001395 18.438027-6.440896.000393c-.057463-4.403048-.879113-7.536153-2.45351-9.400091-1.574786-1.869657-4.156996-2.751641-7.740909-2.646341l.000247 29.469649c.001677 2.056844.061956 3.368518.175506 3.941128.119269.572222.440064.98138.961997 1.221756.484123.191231 1.235892.347062 2.261414.472826 1.036573.119268 2.442575.178994 4.200461.174621l-.001078 6.165203-28.395083.002024-.004642-6.164815c3.447527.001631 5.621946-.214869 6.534694-.650276.335399-.137673.575408-.326331.714694-.559864.14423-.245361.233288-.71106.284333-1.398261.044549-.698252.065424-1.745385.068732-3.136068l.000815-29.538669c-3.586447-.101372-6.152457.779472-7.709469 2.64331-1.550905 1.869169-2.372365 5.004604-2.464382 9.406304l-6.464162-.003774.001395-18.438027zm0 0" fill="none" stroke="#57311d" stroke-width="1.075889" transform="matrix(.679857 .0461337 -.0461337 .679857 208.931681 116.835475)"/><path d="m29.189989 5.725356c5.591459.000503 10.394016 1.016261 14.407672 3.047273 4.019317 2.030102 7.088405 4.938836 9.212016 8.719633 2.134019 3.773316 3.207226 8.315316 3.201729 13.623074.00511 5.265408-1.078809 9.788619-3.239526 13.573474-2.145559 3.770803-5.215423 6.6684-9.208681 8.698452-3.992347 2.035711-8.759236 3.046388-14.303596 3.049921-8.326394-.001825-14.85054-2.227031-19.578096-6.67471-2.48513-2.34657-4.328221-5.069313-5.530183-8.173887-1.190643-3.106395-1.787378-6.743793-1.789296-10.906535.004108-3.728246.630442-7.161763 1.89416-10.314602 1.273217-3.165979 3.081669-5.820019 5.424448-7.967778 4.789132-4.445724 11.288476-6.669888 19.509353-6.674315zm-.000558 6.601747c-3.971418.000172-6.885729 1.554738-8.755162 4.659859-.898285 1.526378-1.55153 3.384935-1.960645 5.570012-.411846 2.168098-.615811 4.906601-.612805 8.209849-.002607 3.629299.20339 6.534103.61324 8.720981.407118 2.1699 1.060807 4.067887 1.960155 5.688302 1.870132 3.107408 4.784792 4.659107 8.75621 4.658935 3.965758.000739 6.885728-1.554737 8.755162-4.659858.954169-1.576011 1.622572-3.448619 1.993889-5.616004.385566-2.187095.577695-4.999175.575478-8.441899.001818-3.489823-.201644-6.342778-.611297-8.564526-.393584-2.230138-1.051309-4.081027-1.958015-5.566715-1.916321-3.105785-4.83664-4.656573-8.75621-4.658936zm0 0" fill="none" stroke="#57311d" stroke-width="1.075889" transform="matrix(.672771 .108224 -.108224 .672771 257.422838 120.672678)"/><path d="m1.437142 54.999316.000786-6.232368 2.64204-.001343c1.342658-.04689 2.324746-.151309 2.94068-.31196.630094-.175709 1.039915-.565102 1.22647-1.155716.188251-.608661.25624-1.507192.209552-2.696887l.002508-27.036142c.044749-1.252118-.024768-2.159919-.211145-2.734572-.185081-.569068-.597209-.950071-1.228207-1.133136-.618135-.203706-1.599628-.299514-2.941488-.299889l-2.642041.001344-.00051-6.237952 44.826638.003485-.004635 19.574492-6.232367-.000785c-.288727-2.91665-.684536-5.255251-1.188725-7.021389-.499902-1.773018-1.266931-3.125036-2.296801-4.062933-1.02299-.933611-2.414221-1.552216-4.161227-1.852824-1.745312-.318657-4.023596-.448844-6.849908-.404719l-3.730825.001064-.000353 13.712066c1.777912-.047895 3.110894-.263203 4.010114-.648517.910389-.387906 1.535886-1.115735 1.875196-2.18907s.534423-2.66638.578459-4.783424l6.020972.002784.003482 21.814782-6.02526.004097c-.139743-2.350971-.334415-4.000647-.57973-4.95591-.228564-.959151-.613176-1.65256-1.137084-2.084116-.478738-.389078-1.124894-.662783-1.945349-.825403-.814871-.163917-1.623558-.1998-2.431644-.106352-.152963.000202-.275811.028722-.365553.073097l-.003689 11.188188c-.000577 1.188898.084396 2.087226.249335 2.69628.173515.595294.581355.983177 1.222224 1.158065.643861.162423 1.609899.267705 2.909282.313251l3.013278.000744-.000786 6.232367zm0 0" fill="none" stroke="#57311d" stroke-width="1.075889" transform="matrix(.663767 .154101 -.154101 .663767 298.66607 127.486648)"/><path d="m-6.421875-31.96875 18.421875-4.28125.96875 4.140625-2 .46875c-.855469.199219-1.484375.414063-1.890625.640625-.398437.21875-.609375.53125-.640625.9375-.023438.40625.066406 1.023438.265625 1.84375l4.796875 20.71875 2.484375-.578125c1.875-.40625 3.363281-.84375 4.46875-1.3125 1.113281-.476563 1.929687-1.101563 2.453125-1.875.53125-.78125.828125-1.796875.890625-3.046875s-.03125-2.847656-.28125-4.796875l4.203125-.96875 3 12.953125-29.765625 6.90625-.96875-4.140625 1.75-.40625c.894531-.238281 1.535156-.457031 1.921875-.65625.382812-.207031.59375-.515625.625-.921875.039062-.414062-.046875-1.015625-.265625-1.796875l-4.171875-18.015625c-.164062-.832031-.351562-1.421875-.5625-1.765625-.21875-.351563-.546875-.546875-.984375-.578125s-1.101563.058594-2 .265625l-1.75.40625zm0 0" fill="#7e4320" transform="translate(52.46381 171.566473)"/><path d="m1.0625-.1875-.75-4.1875 1.96875-.359375c.90625-.1875 1.550781-.367187 1.9375-.546875.394531-.1875.617188-.492188.671875-.921875.0625-.425781.003906-1.039063-.171875-1.84375l-3.234375-18.140625c-.117187-.832031-.277344-1.425781-.484375-1.78125-.199219-.363281-.515625-.570312-.953125-.625-.425781-.0625-1.09375-.015625-2 .140625l-1.96875.359375-.75-4.171875 18.953125-3.390625.75 4.171875-1.96875.359375c-.867188.15625-1.507812.339844-1.921875.546875-.417969.199219-.648437.5-.6875.90625-.03125.40625.023437 1.023437.171875 1.84375l3.234375 18.140625c.144531.8125.304687 1.414062.484375 1.796875.1875.375.507812.585937.96875.625.457031.03125 1.117188-.015625 1.984375-.140625l1.96875-.359375.75 4.1875zm0 0" fill="#7e4320" transform="translate(84.699658 164.230456)"/><path d="m-3.09375-32.46875 18.75-2.359375.53125 4.21875-2.03125.25c-.875.117187-1.527344.265625-1.953125.453125-.417969.179688-.65625.46875-.71875.875-.054687.398438-.027344 1.015625.078125 1.859375l2.65625 21.09375 2.515625-.3125c1.90625-.207031 3.429687-.492187 4.578125-.859375 1.15625-.363281 2.035156-.898438 2.640625-1.609375.601563-.71875 1-1.695313 1.1875-2.9375.1875-1.238281.253906-2.835937.203125-4.796875l4.28125-.53125 1.65625 13.1875-30.296875 3.8125-.53125-4.21875 1.78125-.21875c.90625-.144531 1.554687-.300781 1.953125-.46875.40625-.164062.644531-.453125.71875-.859375.082031-.40625.0625-1.003906-.0625-1.796875l-2.3125-18.34375c-.074219-.851562-.203125-1.460938-.390625-1.828125-.179687-.363281-.484375-.582031-.921875-.65625-.429688-.082031-1.09375-.066406-2 .046875l-1.78125.21875zm0 0" fill="#7e4320" transform="translate(105.291818 160.383909)"/><path d="m.984375-.03125-.15625-4.25 1.796875-.078125c.914062-.0625 1.582031-.15625 2-.28125.414062-.132813.679688-.398437.796875-.796875.113281-.394531.140625-1 .078125-1.8125l-.6875-18.46875c0-.84375-.074219-1.457031-.21875-1.84375-.148438-.382812-.433594-.632812-.859375-.75-.429687-.113281-1.101563-.15625-2.015625-.125l-1.796875.078125-.15625-4.25 18.984375-.71875c2.414062-.09375 4.351562-.019531 5.8125.21875 1.457031.242187 2.6875.664063 3.6875 1.265625.90625.59375 1.640625 1.40625 2.203125 2.4375.5625 1.023438.863281 2.121094.90625 3.296875.082031 2.054687-.601563 3.820313-2.046875 5.296875-.5.542969-1.0625.996094-1.6875 1.359375-.625.367187-1.53125.804687-2.71875 1.3125 1.570312.324219 2.765625.640625 3.578125.953125s1.585937.734375 2.328125 1.265625c1.769531 1.375 2.703125 3.3125 2.796875 5.8125.050781 1.53125-.226563 2.9375-.828125 4.21875-.59375 1.273437-1.449219 2.25-2.5625 2.9375-1.085938.667969-2.460938 1.179687-4.125 1.53125-1.667969.355469-3.871094.585937-6.609375.6875zm13.703125-4.78125 2.59375-.09375c1.332031-.050781 2.40625-.191406 3.21875-.421875.820312-.226563 1.492188-.5625 2.015625-1 1.039063-.945313 1.523437-2.363281 1.453125-4.25-.074219-1.820313-.683594-3.125-1.828125-3.90625-1.136719-.789063-2.90625-1.144531-5.3125-1.0625l-2.546875.09375zm-.5625-14.75 2.203125-.078125c2.175781-.082031 3.738281-.523437 4.6875-1.328125.957031-.800781 1.40625-2.046875 1.34375-3.734375-.0625-1.601563-.578125-2.734375-1.546875-3.390625-.96875-.664062-2.515625-.957031-4.640625-.875l-2.390625.078125zm0 0" fill="#7e4320" transform="translate(149.982155 155.206147)"/><path d="m1.078125.015625.0625-4.25 2 .03125c.914063-.007813 1.585937-.066406 2.015625-.171875.425781-.113281.707031-.375.84375-.78125.132812-.40625.191406-1.019531.171875-1.84375l.296875-18.421875c.050781-.84375.015625-1.457031-.109375-1.84375-.125-.394531-.402344-.660156-.828125-.796875-.417969-.132812-1.085938-.210938-2-.234375l-2-.03125.078125-4.25 19.25.3125-.078125 4.25-2-.03125c-.875-.007813-1.539062.046875-1.984375.171875-.4375.117188-.71875.371094-.84375.765625-.117187.386719-.183594 1-.203125 1.84375l-.296875 18.421875c-.011719.824219.035156 1.4375.140625 1.84375.113281.40625.390625.671875.828125.796875s1.09375.210937 1.96875.25l2 .03125-.0625 4.25zm0 0" fill="#7e4320" transform="translate(185.44824 154.059523)"/><path d="m34.828125-30.296875-.84375 12.53125-4.390625-.296875c.164062-3-.246094-5.171875-1.234375-6.515625-.980469-1.34375-2.695313-2.0625-5.140625-2.15625l-1.359375 20.046875c-.09375 1.398438-.117187 2.292969-.0625 2.6875.0625.398438.265625.6875.609375.875.3125.148438.8125.289062 1.5.421875.695312.125 1.648438.230469 2.859375.3125l-.28125 4.1875-19.3125-1.3125.28125-4.1875c2.332031.15625 3.816406.109375 4.453125-.140625.238281-.082031.410156-.203125.515625-.359375.113281-.15625.203125-.46875.265625-.9375s.125-1.171875.1875-2.109375l1.359375-20.09375c-2.417969-.226562-4.203125.257812-5.359375 1.453125-1.148438 1.199219-1.851562 3.289063-2.109375 6.265625l-4.375-.296875.84375-12.53125zm0 0" fill="#7e4320" transform="translate(206.394329 154.227606)"/><path d="m24.96875-30c3.757812.605469 6.882812 1.8125 9.375 3.625 2.488281 1.804688 4.242188 4.089844 5.265625 6.859375 1.019531 2.773437 1.238281 5.9375.65625 9.5-.5625 3.542969-1.777344 6.46875-3.640625 8.78125-1.855469 2.3125-4.234375 3.929687-7.140625 4.859375-2.90625.9375-6.226563 1.109375-9.953125.515625-5.59375-.90625-9.746094-3.109375-12.453125-6.609375-1.40625-1.851562-2.351563-3.890625-2.828125-6.109375-.46875-2.21875-.480469-4.726563-.03125-7.53125.40625-2.5 1.207031-4.738281 2.40625-6.71875 1.195312-1.988281 2.695312-3.582031 4.5-4.78125 3.695312-2.476563 8.3125-3.273437 13.84375-2.390625zm-.703125 4.453125c-2.679687-.425781-4.8125.304687-6.40625 2.1875-.78125.929687-1.429687 2.105469-1.9375 3.53125-.5 1.417969-.929687 3.234375-1.28125 5.453125-.398437 2.4375-.578125 4.414062-.546875 5.921875.039062 1.511719.28125 2.859375.71875 4.046875.914062 2.304688 2.710938 3.667969 5.390625 4.09375 2.675781.425781 4.804687-.304688 6.390625-2.203125.800781-.945313 1.453125-2.128906 1.953125-3.546875.5-1.425781.929687-3.300781 1.296875-5.625.382812-2.34375.554688-4.285156.515625-5.828125-.03125-1.539063-.273437-2.859375-.71875-3.953125-.9375-2.289062-2.730469-3.648438-5.375-4.078125zm0 0" fill="#7e4320" transform="translate(251.470514 157.675105)"/><path d="m.953125.21875.96875-4.140625 1.75.40625c.894531.179687 1.5625.261719 2 .25.4375-.019531.765625-.210937.984375-.578125.21875-.363281.40625-.953125.5625-1.765625l4.15625-17.953125c.226562-.8125.320312-1.421875.28125-1.828125-.03125-.414063-.242188-.734375-.625-.953125-.386719-.21875-1.027344-.429688-1.921875-.640625l-1.75-.40625.96875-4.140625 29.765625 6.90625-3.015625 13-4.15625-.953125c.257813-1.976563.359375-3.59375.296875-4.84375-.0625-1.257813-.367188-2.28125-.90625-3.0625-.542969-.78125-1.371094-1.40625-2.484375-1.875-1.105469-.46875-2.59375-.90625-4.46875-1.3125l-2.484375-.578125-2.109375 9.09375c1.1875.242188 2.109375.304688 2.765625.1875.664062-.113281 1.191406-.5 1.578125-1.15625.382813-.664062.753906-1.691406 1.109375-3.078125l4 .921875-3.359375 14.46875-4-.921875c.269531-1.582031.398437-2.707031.390625-3.375-.011719-.664063-.164062-1.1875-.453125-1.5625-.25-.320313-.632813-.597656-1.140625-.828125-.511719-.238281-1.042969-.394531-1.59375-.46875-.105469-.03125-.195312-.035156-.265625-.015625l-1.71875 7.4375c-.1875.804687-.273437 1.417969-.25 1.84375.019531.417969.226563.730469.625.9375.40625.210937 1.035156.429687 1.890625.65625l2 .46875-.96875 4.140625zm0 0" fill="#7e4320" transform="translate(290.190498 163.993832)"/><path d="m6.615225 40.480796-4.324981.002393.000893-13.9721 4.806641-.00067c.35659 1.779156.777954 3.11974 1.273383 4.024401.495429.904662 1.259547 1.80055 2.29103 2.692309 2.067592 1.749681 4.541387 2.620739 7.424708 2.619144 1.984355-.001762 3.548544-.379463 4.685924-1.145041 1.13406-.771548 1.702716-1.814795 1.704645-3.125095-.000048-1.285751-.5692-2.336993-1.702811-3.1524-.783136-.494494-2.329884-.970654-4.63892-1.433122-1.284563-.250734-2.74565-.586955-4.38658-1.01463-1.63164-.425028-3.017796-.830287-4.151173-1.223745-1.815516-.608036-3.250272-1.318452-4.298299-2.13457-1.040734-.824083-1.901799-1.873173-2.577227-3.150589-.678788-1.353711-1.01599-2.866173-1.018901-4.529422.000664-3.595859 1.273593-6.387003 3.818786-8.373431 2.543197-1.997043 6.087418-2.995495 10.637308-2.994032 1.562406-.001528 2.927159.091262 4.100227.27505 1.181686.171178 2.280515.474427 3.3071.90775 1.033879.425358 2.116952 1.030482 3.255188 1.812051l1.068079-2.513048 4.424499.000869-.000094 13.018069-4.907484.002052c-.321388-1.70885-.746725-3.0355-1.27866-3.970659-.527962-.949094-1.305976-1.77863-2.338686-2.489933-.817033-.604607-1.870182-1.085684-3.152808-1.431291-1.275332-.353573-2.555212-.532657-3.840963-.532609-1.66657-.003059-3.013814.371205-4.051024 1.120142-1.031241.745617-1.545522 1.739075-1.54749 2.97905.001217.999807.35659 1.779155 1.067443 2.3334.713503.544955 1.99089 1.014629 3.83813 1.405701 2.848469.561023 5.124358 1.069288 6.823023 1.523469 1.711926.442896 3.092132.886639 4.141942 1.326584 1.048485.44459 1.984229.967528 2.799937 1.57678 2.883777 2.022568 4.323692 4.863959 4.324392 8.525498-.003078 1.631407-.331294 3.170111-.992614 4.608821-.657999 1.444678-1.592769 2.679862-2.796346 3.712845-.780517.641317-1.595602 1.157263-2.435966 1.550486-.834395.389903-1.869842.727504-3.112311 1.016126-.892878.207488-1.848808.371887-2.863144.494522-1.00637.129928-1.884068.196095-2.631769.193855-.964645.001197-2.075967-.099695-3.34458-.300679-1.261973-.189047-2.509397-.464348-3.749567-.81794-.852-.252964-1.562026-.51065-2.136047-.769739-.566728-.267053-1.274855-.689938-2.13632-1.262012zm0 0" fill="none" stroke="#57311d" stroke-width=".799999" transform="matrix(.777763 -.221753 .221753 .777763 37.077413 188.177772)"/><path d="m21.703085 3.360581c4.157686.002358 7.730883.754223 10.717576 2.265041 2.986694 1.510818 5.267013 3.671082 6.849399 6.487528 1.585408 2.802276 2.38205 6.17717 2.379472 10.127394-.000252 3.91615-.80058 7.276538-2.407723 10.089604-1.595681 2.805633-3.877517 4.961266-6.846516 6.471623-2.969 1.510357-6.517667 2.265016-10.636556 2.265989-6.192505-.00156-11.045497-1.65344-14.557971-4.960362-1.849779-1.747479-3.220495-3.773093-4.115864-6.082572-.885922-2.307465-1.327312-5.009072-1.327887-8.110551.002812-2.769881.468004-5.322667 1.40704-7.665791.946781-2.356289 2.291347-4.33147 4.033699-5.925541 3.560139-3.310339 8.396152-4.960975 14.505331-4.962362zm.000459 4.908933c-2.949.00345-5.120575 1.155388-6.511007 3.461544-.668073 1.141581-1.154408 2.519443-1.456297 4.144041-.304599 1.614143-.457288 3.650811-.457058 6.105277.001839 2.701734.15356 4.862557.455163 6.48247.307333 1.616197.791553 3.028117 1.45839 4.232046 1.388896 2.310982 3.562568 3.465755 6.511568 3.462305 2.952717.002281 5.119567-1.150664 6.511007-3.461544.709195-1.172321 1.203276-2.563348 1.483248-4.177803.286711-1.622895.431581-3.715552.429888-6.278977-.000375-2.592775-.150705-4.713794-.455713-6.364064-.293546-1.657704-.779085-3.040275-1.457622-4.142989-1.423976-2.308584-3.592924-3.46235-6.511567-3.462306zm0 0" fill="none" stroke="#57311d" stroke-width=".799999" transform="matrix(.790984 -.168624 .168624 .790984 66.34465 179.782738)"/><path d="m16.314592 35.366201.001208 4.636316-15.247275-.003358-.001208-4.636316 1.757702.002616c.998217-.03687 1.728796-.113119 2.187564-.234154.460004-.130615.758825-.408631.896466-.834046.147221-.42418.207886-1.083537.172416-1.979305l-.001584-20.156787c.037002-.891294-.019152-1.551103-.169079-1.974637-.139729-.42709-.439376-.709221-.898941-.846394-.457713-.151545-1.188923-.221475-2.186989-.223545l-1.75832.002174.000795-4.689627 18.671047.001646 6.237844 21.910505 6.443572-21.911696 18.515287.001043-.000178 4.684836-1.821212-.001065c-.954953.003489-1.675334.076183-2.161759.222871-.4804.137726-.77984.420531-.898319.848417-.122652.422478-.183317 1.081835-.181997 1.97807l-.003206 20.15617c.001938.891444.062882 1.551871.18345 1.97649.120568.424618.420833.701959.900794.832023.48537.125891 1.205765.204166 2.161185.234827l1.821211.001065.001208 4.636316-18.622526-.00026.003582-4.635698 1.013055-.000868c.997599-.03208 1.728795-.113119 2.187564-.234154.460003-.130615.758825-.40863.901256-.833428.14722-.42418.203096-1.084155.167626-1.979923l-.001316-22.236207-8.800844 29.920704-7.197385-.002724-8.583183-29.970682-.000688 22.289518c.00132.896235.062265 1.556662.182833 1.981281.120568.424618.420832.701959.900794.832023.485987.1211 1.225543.201847 2.224693.233276zm0 0" fill="none" stroke="#57311d" stroke-width=".799999" transform="matrix(.802119 -.103423 .103423 .802119 102.763913 171.963944)"/><path d="m1.06942 39.999444-.002238-4.63288 1.968395-.003882c.997813-.032698 1.727158-.112569 2.187555-.229964.46594-.131628.77046-.421178.908258-.859241.138516-.452535.191084-1.122114.157704-2.008735l.001309-20.102674c.031486-.926926-.01701-1.606355-.155617-2.029118-.143191-.427826-.443585-.708705-.915416-.848179-.456881-.148403-1.188453-.218555-2.18459-.219625l-1.968155-.000942.002586-4.632642 35.137589-.002216.000305 13.540469-4.685944-.000396c-.28511-1.953333-.632785-3.522901-1.042785-4.713528-.405177-1.190387-.9745-2.09393-1.702665-2.720039-.728164-.626109-1.728315-1.033591-2.995627-1.222208-1.256946-.202611-2.90193-.284235-4.92024-.248979l-4.652177.00128.004566 10.141059.909066.001585c1.346577-.044407 2.364847-.196987 3.059632-.457501.695264-.270161 1.176247-.80242 1.443189-1.601601.271766-.798943.422306-1.981098.456924-3.555876l4.429555.002181-.002296 16.224251-4.42473-.001941c-.071344-1.778307-.233682-3.087213-.482669-3.916831-.253093-.844329-.714704-1.384673-1.394004-1.631159-.669412-.250831-1.698876-.359943-3.083805-.322275l-.913891-.001824-.000739 11.417467 4.806784.001556c1.915091-.00169 3.507895-.135433 4.763939-.401948 1.265932-.270859 2.276837-.762316 3.023067-1.474849.745991-.707709 1.32375-1.728426 1.728213-3.057565.409766-1.338549.740527-3.034037.99252-5.091288l4.685945.000395-.002164 14.662271zm0 0" fill="none" stroke="#57311d" stroke-width=".799999" transform="matrix(.807765 -.0400815 .0400815 .807765 146.446987 166.607727)"/><path d="m35.672599 4.426968.003637 13.713904-4.791918-.000063c-.043109-3.274425-.650636-5.602626-1.822737-6.99426-1.172024-1.386805-3.090651-2.041825-5.755884-1.965058l.000492 21.911416c.000525 1.53128.045222 2.506333.12934 2.930067.089025.428485.325735.728995.715115.911112.359703.13912.917097.255731 1.681918.354509.769416.084211 1.813558.130181 3.122611.128407l.00142 4.584179-21.119254-.002614-.001342-4.57935c2.564984-.002692 4.180623-.163986 4.856574-.484035.254319-.10554.430824-.243641.534345-.414379.103287-.185226.17503-.529352.210244-1.041959.035058-.522265.051503-1.30025.049336-2.333956l.003482-21.964616c-2.667723-.077771-4.57484.580936-5.731166 1.96662-1.151418 1.390436-1.766016 3.71901-1.834059 6.990396l-4.806405.000171.00127-13.709153zm0 0" fill="none" stroke="#57311d" stroke-width=".799999" transform="matrix(.808653 .0130322 -.0130322 .808653 180.249984 165.025537)"/><path d="m.964121 40.001934.001296-4.639183 1.963413.001982c1.00028-.036952 1.725722-.113449 2.185539-.235127.463808-.131713.760056-.409085.903181-.833347.143124-.424262.203138-1.083802.165603-1.977387l-.000509-20.155926c.036998-.929035-.020952-1.607586-.168627-2.03125-.13805-.424487-.438662-.709055-.8962-.84449-.458771-.149873-1.192141-.222971-2.190896-.22493l-1.963002.002831.001707-4.634371 19.462819.000514-.001707 4.634371-1.013193-.000725c-.998755-.001959-1.738634.075772-2.215646.223155-.477835.137759-.778484.420354-.911984.843794-.118651.427019-.182244 1.101407-.180332 2.031967l-.000095 6.980431 11.522544-.000015.000094-6.98043c.036998-.929035-.020952-1.607586-.168627-2.03125-.13805-.424487-.453099-.707822-.939922-.845604-.473209-.148639-1.206579-.221738-2.200522-.224107l-1.013193-.000726.001707-4.634371 19.46282.000515-.001707 4.63437-1.97744.004064c-.955033-.000845-1.676073.070429-2.16271.218635-.477834.137759-.773671.419942-.897135.847373-.119062.422207-.182245 1.101408-.180332 2.031967l.000098 20.151114c-.000965.896873.060154 1.555763.178954 1.981893.123613.42572.423403.700663.90019.834454.48518.118533 1.204524.197677 2.162434.232209l1.97785.000748-.001707 4.634371-19.462819-.000514.001707-4.634371 1.013192.000725c.990656-.036129 1.725722-.113449 2.199977-.236359.488281-.128956.798966-.407561.937278-.831412.147937-.424673.203139-1.083802.170416-1.977798l-.002363-8.371457-11.522543.000014.002363 8.371458c-.001376.89206.059743 1.55095.183356 1.976669.128425.425309.433438.704653.909815.833632.475965.124167 1.214559.201667 2.215781.2325l1.013192.000726-.001296 4.639183zm0 0" fill="none" stroke="#57311d" stroke-width=".799999" transform="matrix(.805825 .0688199 -.0688199 .805825 211.808047 165.499866)"/><path d="m1.174029 39.998803-.002336-4.635217 2.186465.003035c.999965-.036318 1.730088-.116818 2.186274-.236035.464374-.130151.759909-.416588.900946-.86137.145131-.45025.20539-1.117644.170528-2.005589l-.003758-20.098238c.036823-.932401-.021092-1.607214-.165559-2.035375-.138999-.424067-.438405-.707979-.90231-.846269-.459812-.143758-1.18801-.219678-2.183222-.2182l-2.191245-.002348.002444-4.635904 21.011489.00166.002337 4.635217-2.185778.001746c-.966527-.002644-1.687775.071702-2.164431.218257-.477343.141774-.778345.424117-.907787.847715-.123975.427692-.18286 1.104647-.186217 2.03224l.004444 20.10302c-.004758.883878.057252 1.553224.180562 2.003942.127404.445251.43159.728476.909151.859925.480968.1212 1.199605.198494 2.161378.235977l2.190559-.002433-.002445 4.635904zm0 0" fill="none" stroke="#57311d" stroke-width=".799999" transform="matrix(.800538 .115015 -.115015 .800538 248.461395 168.910799)"/><path d="m1.069395 9.065584-.003395-4.636688 17.01701.000772 13.593206 24.857342.003334-17.125948c.033608-.928373-.02401-1.601706-.170039-2.030426-.140335-.424946-.438484-.70456-.900141-.842616-.458841-.148483-1.188399-.222386-2.188674-.221709l-2.015709-.000501.001339-4.637648 16.209024.001903-.002298 4.632913-1.651025-.000492c-1.000275.000677-1.73892.07646-2.226363.224534-.479895.136688-.777548.418781-.898651.842505-.120144.428457-.184707 1.10684-.184219 2.033231l-.000421 27.839125-10.832541-.002463-14.607064-26.455556-.000177 18.722024c.002279.886602.058937 1.555202.184175 2.00292.129972.446759.433815.730147.908713.860592.478672.124751 1.198763.200573 2.162191.236932l2.020442-.000458-.002298 4.632914-16.420248.001482.001339-4.637647 1.912464.001714c.998292-.034772 1.731245-.114329 2.190349-.232019.465694-.13381.772814-.417821.909974-.859584.139975-.452189.191295-1.12296.154921-2.007581l.001366-20.102142c.033608-.928373-.014542-1.603625-.155837-2.033305-.140336-.424946-.443219-.703601-.910568-.845431-.458842-.148483-1.1884-.222386-2.188674-.221709zm0 0" fill="none" stroke="#57311d" stroke-width=".799999" transform="matrix(.792643 .160649 -.160649 .792643 268.624352 171.615092)"/><path d="m32.158457 40.376955-1.337576-2.720335c-1.528228.883803-2.878914 1.577523-4.05206 2.081162-1.169795.497686-2.307545.840966-3.41325 1.029841-1.09715.201529-2.363568.29994-3.787349.301934-3.585962-.000139-6.711244-.75603-9.386451-2.269722-2.663302-1.506991-4.71676-3.630902-6.157772-6.36243-1.440263-2.746783-2.159282-5.981154-2.160958-9.717066.000213-3.836747.754129-7.20221 2.265098-10.102343 1.516921-2.896781 3.628056-5.157308 6.326706-6.769675 2.700699-1.62297 5.829425-2.432809 9.389528-2.435468 1.344154.000215 2.523262.091727 3.537323.274536 1.016111.172206 2.045942.501064 3.089494.986573 1.046902.479556 2.266581 1.146509 3.657737 1.996206l.962416-2.566164 4.855141.001261.00039 14.293431-5.064811.002211c-.286294-1.956133-.622958-3.446803-1.012594-4.481313-.394287-1.033209-.943214-1.93791-1.654033-2.722103-1.493422-1.663662-3.591915-2.496082-6.300131-2.495959-5.688422-.003929-8.532482 4.477722-8.530129 13.434349-.002132 4.654773.640732 8.101023 1.928592 10.338749.559494 1.032143 1.406112 1.853585 2.523301 2.458927 1.118489.609994 2.376045.910269 3.761313.91403.957373-.001947 1.869767-.146787 2.738482-.429871.872066-.289035 1.48964-.627262 1.846772-1.01803.492613-.53398.740383-1.656484.741262-3.356909l-.000553-2.512499c.002779-1.209459-.133741-1.948645-.402861-2.229463-.259816-.283419-.978075-.448653-2.148825-.49235l-2.562917-.000392-.001967-4.633565 19.413311-.002956-.001384 4.639518-1.911396-.002058c-.963326-.001404-1.607077.153563-1.929206.454297-.320828.305386-.500175.937317-.532089 1.899146l.001381 12.216828zm0 0" fill="none" stroke="#57311d" stroke-width=".799999" transform="matrix(.77887 .217833 -.217833 .77887 304.869272 179.062035)"/><g fill="#7e4320"><path d="m5.25-1.09375-3.359375.953125-3.09375-10.859375 3.734375-1.0625c.664062 1.304688 1.289062 2.25 1.875 2.84375.59375.59375 1.390625 1.121094 2.390625 1.578125 1.988281.90625 4.101563 1.039063 6.34375.390625 1.539063-.4375 2.664063-1.078125 3.375-1.921875.71875-.84375.929687-1.773437.640625-2.796875-.28125-.988281-.949219-1.679688-2-2.078125-.730469-.226563-2.046875-.253906-3.953125-.078125-1.042969.085938-2.246094.140625-3.609375.171875-1.367188.03125-2.53125.023437-3.5-.03125-1.554688-.070313-2.828125-.304687-3.828125-.703125-.988281-.40625-1.882813-1.035156-2.6875-1.890625-.832031-.882813-1.4375-1.976563-1.8125-3.28125-.789063-2.800781-.421875-5.253906 1.109375-7.359375 1.53125-2.113281 4.066406-3.675781 7.609375-4.6875 1.21875-.351562 2.300781-.585938 3.25-.703125.957031-.125 1.882813-.128906 2.78125-.015625.894531.105469 1.867187.324219 2.921875.65625l.28125-2.171875 3.453125-.984375 2.890625 10.109375-3.8125 1.09375c-.636719-1.238281-1.265625-2.164063-1.890625-2.78125-.625-.625-1.417969-1.101563-2.375-1.4375-.78125-.28125-1.710937-.414063-2.78125-.40625-1.0625 0-2.09375.148437-3.09375.4375-1.292969.367187-2.257813.953125-2.890625 1.765625-.636719.8125-.820312 1.703125-.546875 2.671875.226563.773437.675781 1.292969 1.34375 1.5625.675781.273437 1.773437.355469 3.296875.25 2.332031-.1875 4.207031-.296875 5.625-.328125 1.425781-.039062 2.597656 0 3.515625.125.914063.117188 1.765625.3125 2.546875.59375 2.675781.9375 4.421875 2.835938 5.234375 5.6875.363281 1.261719.445313 2.527344.25 3.796875-.1875 1.273437-.636719 2.4375-1.34375 3.5-.46875.679687-.984375 1.261719-1.546875 1.75-.5625.480469-1.292969.96875-2.1875 1.46875-.65625.367187-1.367188.710937-2.125 1.03125-.761719.3125-1.429688.554687-2 .71875-.761719.21875-1.652344.398437-2.671875.53125-1.023437.125-2.054687.183594-3.09375.171875-.71875 0-1.328125-.035156-1.828125-.109375-.5-.082031-1.148438-.253906-1.9375-.515625zm0 0" transform="translate(45.947521 219.288311)"/><path d="m10.984375-32.625c3.289063-.695312 6.242187-.703125 8.859375-.015625 2.613281.6875 4.785156 2.011719 6.515625 3.96875 1.738281 1.949219 2.9375 4.480469 3.59375 7.59375.664063 3.105469.597656 5.902344-.203125 8.390625-.792969 2.492188-2.242188 4.585938-4.34375 6.28125-2.09375 1.699219-4.773438 2.890625-8.03125 3.578125-4.886719 1.042969-8.996094.554687-12.328125-1.46875-1.761719-1.070313-3.1875-2.445313-4.28125-4.125-1.09375-1.675781-1.898437-3.734375-2.421875-6.171875-.46875-2.195312-.523438-4.300781-.171875-6.3125.34375-2.007812 1.074219-3.796875 2.1875-5.359375 2.257813-3.207031 5.800781-5.328125 10.625-6.359375zm.828125 3.875c-2.335938.5-3.851562 1.777344-4.546875 3.828125-.34375 1.023437-.5 2.199219-.46875 3.53125.03125 1.335937.25 2.96875.65625 4.90625.457031 2.136719.941406 3.820313 1.453125 5.046875.519531 1.21875 1.148438 2.25 1.890625 3.09375 1.476563 1.59375 3.382813 2.140625 5.71875 1.640625 2.332031-.5 3.851563-1.773437 4.5625-3.828125.363281-1.050781.519531-2.238281.46875-3.5625-.042969-1.320312-.28125-3-.71875-5.03125-.4375-2.050781-.917969-3.703125-1.4375-4.953125-.511719-1.257813-1.125-2.269531-1.84375-3.03125-1.511719-1.582031-3.421875-2.128906-5.734375-1.640625zm0 0" transform="translate(73.089598 211.422113)"/><path d="m12.609375-5.40625.484375 3.71875-12.234375 1.578125-.484375-3.71875 1.40625-.1875c.800781-.132813 1.378906-.273437 1.734375-.421875.351563-.144531.5625-.394531.625-.75.070313-.351562.050781-.882812-.0625-1.59375l-2.078125-16.171875c-.074219-.726563-.1875-1.253906-.34375-1.578125-.15625-.320312-.429688-.515625-.8125-.578125-.375-.070313-.960938-.054687-1.765625.046875l-1.40625.1875-.484375-3.765625 14.96875-1.9375 7.265625 16.9375 2.90625-18.25 14.84375-1.90625.484375 3.765625-1.453125.1875c-.773437.105469-1.34375.242188-1.71875.40625-.375.15625-.589844.414062-.640625.765625-.054688.34375-.03125.875.0625 1.59375l2.078125 16.171875c.09375.71875.207031 1.246094.34375 1.578125.144531.324219.414063.511719.8125.5625.40625.054687.992187.042969 1.765625-.03125l1.453125-.1875.484375 3.71875-14.921875 1.921875-.484375-3.71875.8125-.109375c.789062-.125 1.363281-.257813 1.71875-.40625.363281-.15625.578125-.40625.640625-.75.070313-.351563.046875-.890625-.078125-1.609375l-2.296875-17.828125-3.953125 24.890625-5.78125.75-9.96875-23.140625 2.296875 17.875c.09375.71875.207031 1.242187.34375 1.5625.144531.324219.414063.511719.8125.5625.40625.054687 1.003906.042969 1.796875-.03125zm0 0" transform="translate(106.900816 204.048685)"/><path d="m.859375-.046875-.1875-3.75 1.59375-.078125c.8125-.070312 1.398437-.164062 1.765625-.28125.363281-.113281.59375-.351562.6875-.71875.101562-.363281.125-.90625.0625-1.625l-.796875-16.234375c-.023437-.738281-.101563-1.28125-.234375-1.625-.125-.34375-.375-.5625-.75-.65625-.375-.101563-.96875-.132813-1.78125-.09375l-1.59375.078125-.1875-3.75 28.390625-1.40625.546875 10.9375-3.796875.1875c-.3125-1.5625-.65625-2.816406-1.03125-3.765625-.375-.945313-.875-1.65625-1.5-2.125-.617187-.46875-1.4375-.753906-2.46875-.859375-1.023437-.113281-2.34375-.113281-3.96875 0l-3.75.171875.40625 8.1875.734375-.03125c1.09375-.082031 1.910156-.242187 2.453125-.484375.539063-.25.90625-.695312 1.09375-1.34375.1875-.65625.265625-1.617188.234375-2.890625l3.5625-.171875.65625 13.09375-3.5625.171875c-.136719-1.425781-.324219-2.472656-.5625-3.140625-.230469-.664062-.621094-1.085938-1.171875-1.265625-.554687-.175781-1.390625-.222656-2.515625-.140625l-.734375.03125.453125 9.21875 3.875-.1875c1.539062-.070312 2.816406-.242188 3.828125-.515625 1.007813-.269531 1.800781-.707031 2.375-1.3125.582031-.601563 1.007813-1.445313 1.28125-2.53125.28125-1.09375.476563-2.476563.59375-4.15625l3.796875-.1875.59375 11.84375zm0 0" transform="translate(148.050245 198.918313)"/><path d="m29.3125-28.296875-.1875 11.078125-3.875-.0625c.007812-2.644531-.449219-4.535156-1.375-5.671875-.929688-1.132813-2.46875-1.691406-4.625-1.671875l-.296875 17.71875c-.011719 1.242188.015625 2.039062.078125 2.390625.0625.34375.25.589844.5625.734375.289062.125.742188.230469 1.359375.3125.625.085938 1.46875.132812 2.53125.140625l-.0625 3.703125-17.078125-.265625.0625-3.703125c2.0625.03125 3.367188-.078125 3.921875-.328125.195313-.082031.34375-.195313.4375-.34375.09375-.144531.15625-.425781.1875-.84375.03125-.414063.050781-1.039063.0625-1.875l.296875-17.765625c-2.15625-.09375-3.714844.414062-4.671875 1.515625-.949219 1.105469-1.476563 2.980469-1.578125 5.625l-3.875-.0625.1875-11.078125zm0 0" transform="translate(179.728696 197.371677)"/><path d="m.78125.0625.3125-3.734375 1.578125.140625c.8125.03125 1.40625.015625 1.78125-.046875.382813-.0625.648437-.257813.796875-.59375.144531-.34375.234375-.875.265625-1.59375l1.390625-16.25c.09375-.738281.09375-1.28125 0-1.625-.085938-.351563-.308594-.601563-.671875-.75-.367187-.15625-.949219-.265625-1.75-.328125l-1.578125-.140625.328125-3.734375 15.671875 1.34375-.328125 3.734375-.8125-.0625c-.804687-.070313-1.402344-.066406-1.796875.015625-.398438.085938-.65625.292969-.78125.625-.125.335938-.21875.871094-.28125 1.609375l-.484375 5.640625 9.28125.796875.484375-5.640625c.082031-.738281.078125-1.285156-.015625-1.640625-.085937-.351563-.3125-.601563-.6875-.75-.375-.144531-.964844-.253906-1.765625-.328125l-.8125-.0625.328125-3.734375 15.6875 1.328125-.328125 3.734375-1.609375-.125c-.761719-.070313-1.34375-.066406-1.75.015625-.398437.085938-.65625.292969-.78125.625-.125.335938-.21875.871094-.28125 1.609375l-1.390625 16.25c-.0625.71875-.0625 1.257813 0 1.609375.070312.355469.300781.601562.6875.734375.382812.125.953125.242187 1.703125.34375l1.609375.125-.3125 3.734375-15.6875-1.328125.3125-3.734375.8125.0625c.8125.042969 1.410156.03125 1.796875-.03125.394531-.070312.664063-.273438.8125-.609375.144531-.332031.238281-.859375.28125-1.578125l.578125-6.75-9.28125-.796875-.578125 6.75c-.0625.71875-.0625 1.257813 0 1.609375.070313.355469.296875.601562.671875.734375.382812.125.972656.242187 1.765625.34375l.8125.0625-.3125 3.734375zm0 0" transform="translate(209.055251 197.732872)"/><path d="m.9375.140625.53125-3.71875 1.75.25c.800781.085937 1.394531.105469 1.78125.0625.382812-.039063.65625-.234375.8125-.578125.164062-.34375.289062-.867188.375-1.578125l2.3125-16.09375c.125-.738281.15625-1.285156.09375-1.640625-.054688-.363281-.261719-.628906-.625-.796875-.355469-.164063-.929688-.304687-1.71875-.421875l-1.75-.25.53125-3.703125 16.8125 2.40625-.53125 3.703125-1.75-.25c-.773438-.101562-1.355469-.125-1.75-.0625-.398438.054688-.671875.246094-.828125.578125-.148437.324219-.273437.855469-.375 1.59375l-2.3125 16.09375c-.105469.710937-.136719 1.25-.09375 1.625.050781.375.257813.640625.625.796875.375.148438.941406.289062 1.703125.421875l1.75.25-.53125 3.71875zm0 0" transform="translate(243.860788 200.932334)"/><path d="m5.8125-24.34375.75-3.671875 13.484375 2.734375 6.765625 21.875 2.75-13.5625c.175781-.726562.242188-1.273438.203125-1.640625-.03125-.363281-.226563-.640625-.578125-.828125-.34375-.1875-.90625-.359375-1.6875-.515625l-1.609375-.328125.75-3.671875 12.84375 2.609375-.75 3.671875-1.296875-.265625c-.804688-.15625-1.402344-.21875-1.796875-.1875-.398437.03125-.683594.210938-.859375.53125-.167969.324219-.324219.851562-.46875 1.578125l-4.46875 22.0625-8.59375-1.734375-7.328125-23.3125-3.015625 14.84375c-.136719.710938-.195312 1.246094-.171875 1.609375.03125.367187.226563.636719.59375.8125.363281.179687.921875.359375 1.671875.546875l1.609375.328125-.75 3.671875-13.015625-2.640625.75-3.671875 1.53125.3125c.78125.125 1.363281.179688 1.75.15625.394531-.03125.6875-.207031.875-.53125.1875-.320312.332031-.84375.4375-1.5625l3.234375-15.9375c.175781-.71875.242187-1.257812.203125-1.625-.042969-.375-.242188-.648438-.59375-.828125-.34375-.1875-.90625-.359375-1.6875-.515625zm0 0" transform="translate(262.198399 203.320793)"/><path d="m24.96875 7.28125-.453125-2.390625c-1.386719.363281-2.59375.609375-3.625.734375-1.023437.132812-1.984375.15625-2.890625.0625-.898438-.09375-1.890625-.292969-2.984375-.59375-2.804687-.78125-5.078125-2.054688-6.828125-3.8125-1.75-1.75-2.886719-3.847656-3.40625-6.296875-.523438-2.445313-.375-5.125.4375-8.03125.832031-2.988281 2.148438-5.445313 3.953125-7.375 1.8125-1.925781 3.945313-3.222656 6.40625-3.890625 2.457031-.675781 5.070313-.625 7.84375.15625 1.050781.292969 1.953125.617188 2.703125.96875.75.355469 1.476562.835938 2.1875 1.4375.707031.605469 1.507812 1.390625 2.40625 2.359375l1.3125-1.78125 3.765625 1.0625-3.109375 11.109375-3.9375-1.109375c.207031-1.582031.269531-2.816406.1875-3.703125-.085938-.882812-.320312-1.707031-.703125-2.46875-.804687-1.625-2.257813-2.734375-4.359375-3.328125-4.429688-1.226563-7.617188 1.640625-9.5625 8.609375-1.011719 3.636719-1.261719 6.460938-.75 8.46875.207031.929688.679688 1.75 1.421875 2.46875.75.71875 1.664063 1.226562 2.75 1.53125.738281.207031 1.476563.296875 2.21875.265625.75-.023437 1.300781-.152344 1.65625-.390625.5-.3125.9375-1.136719 1.3125-2.46875l.546875-1.9375c.257812-.945312.316406-1.554688.171875-1.828125-.148437-.28125-.671875-.5625-1.578125-.84375l-1.984375-.5625 1-3.609375 15.109375 4.21875-1 3.609375-1.484375-.40625c-.742187-.207031-1.273437-.226563-1.59375-.0625-.324219.15625-.601563.609375-.828125 1.359375l-2.65625 9.5zm0 0" transform="translate(296.155942 210.216844)"/><path d="m2.6875-4.296875v1.53125c0 .40625.195312.609375.59375.609375v2.140625h-.59375c-.199219 0-.402344-.101563-.609375-.3125-.210937.210937-.417969.3125-.625.3125h-.921875v-2.140625h.3125c.414062 0 .625-.203125.625-.609375v-1.53125c0-.195313-.210938-.398437-.625-.609375.414062-.195312.625-.398438.625-.609375v-1.546875c0-.40625-.210938-.609375-.625-.609375h-.3125v-2.140625h.921875c.207031 0 .414063.105469.625.3125.195313-.207031.398437-.3125.609375-.3125h.59375v2.140625c-.398438 0-.59375.203125-.59375.609375v1.546875h2.453125v-1.546875c0-.40625-.210937-.609375-.625-.609375v-2.140625h.609375c.21875 0 .425781.105469.625.3125.195312-.207031.394531-.3125.59375-.3125h.921875v2.140625h-.296875c-.40625 0-.609375.203125-.609375.609375v1.546875c0 .210937.203125.414063.609375.609375-.40625.210938-.609375.414062-.609375.609375v1.53125c0 .40625.203125.609375.609375.609375h.296875v2.140625h-.921875c-.1875 0-.386719-.101563-.59375-.3125-.210938.210937-.417969.3125-.625.3125h-.609375v-2.140625c.414063 0 .625-.203125.625-.609375v-1.53125zm0 0" transform="translate(42.656253 249.264636)"/><path d="m6.65625-4.921875c-.40625.210937-.609375.414063-.609375.609375v2.15625c0 1.429688-.820313 2.140625-2.453125 2.140625-1.625 0-2.4375-.710937-2.4375-2.140625v-2.15625c0-.195312-.210938-.398438-.625-.609375.414062-.195313.625-.398437.625-.609375v-2.140625c0-1.425781.8125-2.140625 2.4375-2.140625 1.632812 0 2.453125.714844 2.453125 2.140625v2.140625c0 .210938.203125.414062.609375.609375zm-1.828125-.609375v-.921875c0-.8125-.414063-1.21875-1.234375-1.21875-.8125 0-1.21875.40625-1.21875 1.21875v.921875c0 .210938.203125.414062.609375.609375-.40625.210937-.609375.414063-.609375.609375v.921875c0 .824219.40625 1.234375 1.21875 1.234375.820312 0 1.234375-.410156 1.234375-1.234375v-.921875c0-.195312-.203125-.398438-.609375-.609375.40625-.195313.609375-.398437.609375-.609375zm0 0" transform="translate(50.464442 249.264636)"/><path d="m5.140625-.015625h-.921875c-.210938 0-.414062-.101563-.609375-.3125-.210937.210937-.417969.3125-.625.3125h-.90625v-2.140625h.296875c.40625 0 .609375-.203125.609375-.609375v-1.546875c0-.195312-.203125-.394531-.609375-.59375.40625-.21875.609375-.425781.609375-.625v-1.53125c0-.40625-.203125-.609375-.609375-.609375s-.609375.203125-.609375.609375v.609375h-1.234375v-3.359375h2.46875c.195312 0 .398438.105469.609375.3125.207031-.207031.410156-.3125.609375-.3125h2.4375v3.359375h-1.21875v-.609375c0-.40625-.203125-.609375-.609375-.609375s-.609375.40625-.609375 1.21875v.921875c.007812.210938.210938.414062.609375.609375-.398437.199219-.601563.402344-.609375.609375v1.546875c0 .40625.203125.609375.609375.609375h.3125zm0 0" transform="translate(57.660429 249.264636)"/><path d="m3.59375-.015625h-.90625c-.21875-.0078125-.421875-.113281-.609375-.3125-.230469.210937-.4375.3125-.625.3125h-.921875v-2.140625h.3125c.394531 0 .601562-.203125.625-.609375v-1.546875c-.011719-.195312-.21875-.394531-.625-.59375.394531-.195312.601562-.398438.625-.609375v-1.546875c-.023438-.40625-.230469-.609375-.625-.609375h-.3125v-2.140625h.9375c.195312 0 .394531.105469.59375.3125.207031-.207031.617188-.3125 1.234375-.3125.613281 0 1.019531.105469 1.21875.3125.207031-.207031.414063-.3125.625-.3125h.90625v3.359375h-1.21875v-.609375c0-.40625-.203125-.609375-.609375-.609375h-.921875c-.417969 0-.625.40625-.625 1.21875l.015625.9375h.90625v-.3125h.625v.3125c0 .210937.203125.414063.609375.609375-.40625.1875-.609375.390625-.609375.609375v.296875h-.625v-.296875h-.90625l-.015625 1.53125c0 .40625.203125.609375.609375.609375h.3125zm0 0" transform="translate(72.267209 249.264636)"/><path d="m6.65625-4.921875c-.40625.210937-.609375.414063-.609375.609375v2.15625c0 1.429688-.820313 2.140625-2.453125 2.140625-1.625 0-2.4375-.710937-2.4375-2.140625v-2.15625c0-.195312-.210938-.398438-.625-.609375.414062-.195313.625-.398437.625-.609375v-2.140625c0-1.425781.8125-2.140625 2.4375-2.140625 1.632812 0 2.453125.714844 2.453125 2.140625v2.140625c0 .210938.203125.414062.609375.609375zm-1.828125-.609375v-.921875c0-.8125-.414063-1.21875-1.234375-1.21875-.8125 0-1.21875.40625-1.21875 1.21875v.921875c0 .210938.203125.414062.609375.609375-.40625.210937-.609375.414063-.609375.609375v.921875c0 .824219.40625 1.234375 1.21875 1.234375.820312 0 1.234375-.410156 1.234375-1.234375v-.921875c0-.195312-.203125-.398438-.609375-.609375.40625-.195313.609375-.398437.609375-.609375zm0 0" transform="translate(78.851006 249.264636)"/><path d="m6.65625-4.921875c-.40625.210937-.609375.414063-.609375.609375v2.15625c0 1.429688-.820313 2.140625-2.453125 2.140625-1.625 0-2.4375-.710937-2.4375-2.140625v-2.15625c0-.195312-.210938-.398438-.625-.609375.414062-.195313.625-.398437.625-.609375v-2.140625c0-1.425781.8125-2.140625 2.4375-2.140625 1.632812 0 2.453125.714844 2.453125 2.140625v2.140625c0 .210938.203125.414062.609375.609375zm-1.828125-.609375v-.921875c0-.8125-.414063-1.21875-1.234375-1.21875-.8125 0-1.21875.40625-1.21875 1.21875v.921875c0 .210938.203125.414062.609375.609375-.40625.210937-.609375.414063-.609375.609375v.921875c0 .824219.40625 1.234375 1.21875 1.234375.820312 0 1.234375-.410156 1.234375-1.234375v-.921875c0-.195312-.203125-.398438-.609375-.609375.40625-.195313.609375-.398437.609375-.609375zm0 0" transform="translate(86.046993 249.264636)"/><path d="m6.65625-4.90625c-.40625.210938-.609375.414062-.609375.609375v2.140625c0 1.429688-.8125 2.140625-2.4375 2.140625h-.3125c-.605469 0-1.011719-.101563-1.21875-.3125-.210937.210937-.414063.3125-.609375.3125h-.9375v-2.140625h.3125c.414062 0 .625-.203125.625-.609375v-1.53125c0-.195313-.210938-.398437-.625-.609375.414062-.195312.625-.398438.625-.609375v-1.546875c0-.40625-.105469-.609375-.3125-.609375h-.625v-2.140625h.9375c.195312 0 .398438.105469.609375.3125.195313-.207031.601563-.3125 1.21875-.3125h.3125c1.625 0 2.4375.714844 2.4375 2.140625v2.15625c0 .210937.203125.414063.609375.609375zm-1.828125-.609375v-.9375c0-.8125-.40625-1.21875-1.21875-1.21875h-.3125c-.40625 0-.609375.40625-.609375 1.21875l-.015625.9375c0 .210937.203125.414063.609375.609375-.398438.210938-.59375.414062-.59375.609375v.90625c0 .824219.203125 1.234375.609375 1.234375h.3125c.8125 0 1.21875-.410156 1.21875-1.234375v-.90625c0-.195313-.203125-.398437-.609375-.609375.40625-.195312.609375-.398438.609375-.609375zm0 0" transform="translate(93.242981 249.264636)"/><path d="m1.15625-3.578125v-.296875c0-.195312-.210938-.398438-.625-.609375.414062-.207031.625-.414063.625-.625v-.3125h.609375v.3125h3.0625v-.296875h.609375v.296875c0 .210937.203125.417969.609375.625-.40625.210937-.609375.414063-.609375.609375v.3125h-.609375v-.3125h-3.0625v.296875zm0 0" transform="translate(107.849761 249.264636)"/><path d="m6.140625-3.609375.21875.84375c.195313.40625.398437.609375.609375.609375h.296875v2.140625h-.90625c-.199219 0-.402344-.101563-.609375-.3125-.210938.210937-.417969.3125-.625.3125h-.609375v-2.140625c.457031 0 .6875-.113281.6875-.34375 0-.082031-.023437-.171875-.0625-.265625h-.015625l-.15625-.625h-2.125l-.171875.625h.015625c-.054688.09375-.078125.183594-.078125.265625 0 .230469.226563.34375.6875.34375l-.015625 2.140625h-.609375c-.1875 0-.386719-.101563-.59375-.3125-.210937.210937-.414063.3125-.609375.3125h-.9375v-2.140625h.3125c.207031 0 .414062-.203125.625-.609375l.203125-.84375c-.09375-.125-.265625-.253906-.515625-.390625.40625-.195312.609375-.398438.609375-.609375h.171875l.734375-2.75c.03125-.050781.046875-.097656.046875-.140625 0-.113281-.117188-.171875-.34375-.171875v-2.140625h.921875c.207031 0 .410156.105469.609375.3125.21875-.207031.421875-.3125.609375-.3125h.921875v2.140625c-.230469 0-.34375.058594-.34375.171875 0 .042969.007812.089844.03125.140625l.734375 2.75h.1875c0 .210937.203125.414063.609375.609375-.25.136719-.421875.265625-.515625.390625zm-1.46875-1-.765625-3.0625-.765625 3.0625zm0 0" transform="translate(121.84435 249.264636)"/><path d="m6.0625-.015625h-.921875c-.21875-.0078125-.421875-.109375-.609375-.296875-.210938.199219-.621094.296875-1.234375.296875-.617187 0-1.023437-.101563-1.21875-.3125-.21875.210937-.421875.3125-.609375.3125h-.921875l-.015625-2.140625h.3125c.414062 0 .625-.203125.625-.609375v-1.546875c0-.1875-.210938-.382812-.625-.59375.414062-.195312.625-.398438.625-.609375v-1.546875c0-.40625-.210938-.609375-.625-.609375h-.3125l.015625-2.140625h.921875c.195312 0 .398438.105469.609375.3125.207031-.207031.410156-.3125.609375-.3125h.921875v2.140625h-.3125c-.40625 0-.609375.203125-.609375.609375v1.546875c0 .199219.203125.402344.609375.609375-.40625.199219-.609375.402344-.609375.609375v.90625c0 .824219.203125 1.234375.609375 1.234375h.921875c.40625 0 .609375-.203125.609375-.609375v-.625h1.234375zm0 0" transform="translate(129.652539 249.264636)"/><path d="m4.828125-6.453125c0-.8125-.414063-1.21875-1.234375-1.21875-.8125 0-1.21875.40625-1.21875 1.21875v.9375c0 .210937.203125.414063.609375.609375-.40625.210938-.609375.414062-.609375.609375v.90625c0 .824219.40625 1.234375 1.21875 1.234375.820312 0 1.234375-.410156 1.234375-1.234375v-.296875h1.21875v1.53125c0 1.429688-.820313 2.140625-2.453125 2.140625-1.625 0-2.4375-.710937-2.4375-2.140625v-2.140625c0-.195313-.210938-.398437-.625-.609375.414062-.195312.625-.398438.625-.609375v-2.15625c0-1.425781.8125-2.140625 2.4375-2.140625.46875 0 .878906.0625 1.234375.1875v-.1875h1.21875v3.671875h-1.21875zm0 0" transform="translate(136.247071 249.264636)"/><path d="m6.65625-4.921875c-.40625.210937-.609375.414063-.609375.609375v2.15625c0 1.429688-.820313 2.140625-2.453125 2.140625-1.625 0-2.4375-.710937-2.4375-2.140625v-2.15625c0-.195312-.210938-.398438-.625-.609375.414062-.195313.625-.398437.625-.609375v-2.140625c0-1.425781.8125-2.140625 2.4375-2.140625 1.632812 0 2.453125.714844 2.453125 2.140625v2.140625c0 .210938.203125.414062.609375.609375zm-1.828125-.609375v-.921875c0-.8125-.414063-1.21875-1.234375-1.21875-.8125 0-1.21875.40625-1.21875 1.21875v.921875c0 .210938.203125.414062.609375.609375-.40625.210937-.609375.414063-.609375.609375v.921875c0 .824219.40625 1.234375 1.21875 1.234375.820312 0 1.234375-.410156 1.234375-1.234375v-.921875c0-.195312-.203125-.398438-.609375-.609375.40625-.195313.609375-.398437.609375-.609375zm0 0" transform="translate(142.830868 249.264636)"/><path d="m2.6875-4.296875v1.53125c0 .40625.195312.609375.59375.609375v2.140625h-.59375c-.199219 0-.402344-.101563-.609375-.3125-.210937.210937-.417969.3125-.625.3125h-.921875v-2.140625h.3125c.414062 0 .625-.203125.625-.609375v-1.53125c0-.195313-.210938-.398437-.625-.609375.414062-.195312.625-.398438.625-.609375v-1.546875c0-.40625-.210938-.609375-.625-.609375h-.3125v-2.140625h.921875c.207031 0 .414063.105469.625.3125.195313-.207031.398437-.3125.609375-.3125h.59375v2.140625c-.398438 0-.59375.203125-.59375.609375v1.546875h2.453125v-1.546875c0-.40625-.210937-.609375-.625-.609375v-2.140625h.609375c.21875 0 .425781.105469.625.3125.195312-.207031.394531-.3125.59375-.3125h.921875v2.140625h-.296875c-.40625 0-.609375.203125-.609375.609375v1.546875c0 .210937.203125.414063.609375.609375-.40625.210938-.609375.414062-.609375.609375v1.53125c0 .40625.203125.609375.609375.609375h.296875v2.140625h-.921875c-.1875 0-.386719-.101563-.59375-.3125-.210938.210937-.417969.3125-.625.3125h-.609375v-2.140625c.414063 0 .625-.203125.625-.609375v-1.53125zm0 0" transform="translate(150.026855 249.264636)"/><path d="m6.65625-4.921875c-.40625.210937-.609375.414063-.609375.609375v2.15625c0 1.429688-.820313 2.140625-2.453125 2.140625-1.625 0-2.4375-.710937-2.4375-2.140625v-2.15625c0-.195312-.210938-.398438-.625-.609375.414062-.195313.625-.398437.625-.609375v-2.140625c0-1.425781.8125-2.140625 2.4375-2.140625 1.632812 0 2.453125.714844 2.453125 2.140625v2.140625c0 .210938.203125.414062.609375.609375zm-1.828125-.609375v-.921875c0-.8125-.414063-1.21875-1.234375-1.21875-.8125 0-1.21875.40625-1.21875 1.21875v.921875c0 .210938.203125.414062.609375.609375-.40625.210937-.609375.414063-.609375.609375v.921875c0 .824219.40625 1.234375 1.21875 1.234375.820312 0 1.234375-.410156 1.234375-1.234375v-.921875c0-.195312-.203125-.398438-.609375-.609375.40625-.195313.609375-.398437.609375-.609375zm0 0" transform="translate(157.835044 249.264636)"/><path d="m6.0625-.015625h-.921875c-.21875-.0078125-.421875-.109375-.609375-.296875-.210938.199219-.621094.296875-1.234375.296875-.617187 0-1.023437-.101563-1.21875-.3125-.21875.210937-.421875.3125-.609375.3125h-.921875l-.015625-2.140625h.3125c.414062 0 .625-.203125.625-.609375v-1.546875c0-.1875-.210938-.382812-.625-.59375.414062-.195312.625-.398438.625-.609375v-1.546875c0-.40625-.210938-.609375-.625-.609375h-.3125l.015625-2.140625h.921875c.195312 0 .398438.105469.609375.3125.207031-.207031.410156-.3125.609375-.3125h.921875v2.140625h-.3125c-.40625 0-.609375.203125-.609375.609375v1.546875c0 .199219.203125.402344.609375.609375-.40625.199219-.609375.402344-.609375.609375v.90625c0 .824219.203125 1.234375.609375 1.234375h.921875c.40625 0 .609375-.203125.609375-.609375v-.625h1.234375zm0 0" transform="translate(165.031031 249.264636)"/><path d="m1.15625-3.578125v-.296875c0-.195312-.210938-.398438-.625-.609375.414062-.207031.625-.414063.625-.625v-.3125h.609375v.3125h3.0625v-.296875h.609375v.296875c0 .210937.203125.417969.609375.625-.40625.210937-.609375.414063-.609375.609375v.3125h-.609375v-.3125h-3.0625v.296875zm0 0" transform="translate(179.036356 249.264636)"/><path d="m4.828125-6.453125c0-.8125-.414063-1.21875-1.234375-1.21875-.8125 0-1.21875.40625-1.21875 1.21875v.9375c0 .210937.203125.414063.609375.609375-.40625.210938-.609375.414062-.609375.609375v.90625c0 .824219.40625 1.234375 1.21875 1.234375.820312 0 1.234375-.410156 1.234375-1.234375v-.296875h1.21875v1.53125c0 1.429688-.820313 2.140625-2.453125 2.140625-1.625 0-2.4375-.710937-2.4375-2.140625v-2.140625c0-.195313-.210938-.398437-.625-.609375.414062-.195312.625-.398438.625-.609375v-2.15625c0-1.425781.8125-2.140625 2.4375-2.140625.46875 0 .878906.0625 1.234375.1875v-.1875h1.21875v3.671875h-1.21875zm0 0" transform="translate(193.030946 249.264636)"/><path d="m3.59375-2.15625v2.140625h-.921875c-.1875 0-.386719-.101563-.59375-.3125-.210937.210937-.414063.3125-.609375.3125h-.9375v-2.140625h.3125c.414062 0 .625-.203125.625-.609375v-1.53125c0-.195313-.210938-.398437-.625-.609375.414062-.195312.625-.398438.625-.609375v-1.546875c0-.40625-.210938-.609375-.625-.609375h-.3125v-2.140625h.9375c.195312 0 .398438.105469.609375.3125.195313-.207031.394531-.3125.59375-.3125h.921875v2.140625h-.296875c-.40625 0-.609375.203125-.609375.609375v1.546875c0 .210937.203125.414063.609375.609375-.40625.210938-.609375.414062-.609375.609375v1.53125c0 .40625.203125.609375.609375.609375zm0 0" transform="translate(199.614743 249.264636)"/><path d="m4.828125-.203125c-.34375.125-.757813.1875-1.234375.1875-1.625 0-2.4375-.710937-2.4375-2.140625v-2.140625c0-.195313-.210938-.398437-.625-.609375.414062-.195312.625-.398438.625-.609375v-2.15625c0-1.425781.8125-2.140625 2.4375-2.140625.476562 0 .890625.0625 1.234375.1875v-.1875h1.21875v3.671875h-1.21875v-.3125c0-.8125-.414063-1.21875-1.234375-1.21875-.8125 0-1.21875.40625-1.21875 1.21875v.9375c0 .210937.203125.414063.609375.609375-.40625.210938-.609375.414062-.609375.609375v.90625c0 .824219.40625 1.234375 1.21875 1.234375.820312 0 1.234375-.410156 1.234375-1.234375v-.90625h-.921875c0-.195313-.203125-.398437-.609375-.609375.40625-.195312.609375-.398438.609375-.609375h2.140625v5.5h-1.21875zm0 0" transform="translate(203.749756 249.264636)"/><path d="m6.140625-3.609375.21875.84375c.195313.40625.398437.609375.609375.609375h.296875v2.140625h-.90625c-.199219 0-.402344-.101563-.609375-.3125-.210938.210937-.417969.3125-.625.3125h-.609375v-2.140625c.457031 0 .6875-.113281.6875-.34375 0-.082031-.023437-.171875-.0625-.265625h-.015625l-.15625-.625h-2.125l-.171875.625h.015625c-.054688.09375-.078125.183594-.078125.265625 0 .230469.226563.34375.6875.34375l-.015625 2.140625h-.609375c-.1875 0-.386719-.101563-.59375-.3125-.210937.210937-.414063.3125-.609375.3125h-.9375v-2.140625h.3125c.207031 0 .414062-.203125.625-.609375l.203125-.84375c-.09375-.125-.265625-.253906-.515625-.390625.40625-.195312.609375-.398438.609375-.609375h.171875l.734375-2.75c.03125-.050781.046875-.097656.046875-.140625 0-.113281-.117188-.171875-.34375-.171875v-2.140625h.921875c.207031 0 .410156.105469.609375.3125.21875-.207031.421875-.3125.609375-.3125h.921875v2.140625c-.230469 0-.34375.058594-.34375.171875 0 .042969.007812.089844.03125.140625l.734375 2.75h.1875c0 .210937.203125.414063.609375.609375-.25.136719-.421875.265625-.515625.390625zm-1.46875-1-.765625-3.0625-.765625 3.0625zm0 0" transform="translate(210.333553 249.264636)"/><path d="m4.828125-6.453125c0-.8125-.414063-1.21875-1.234375-1.21875h-.3125c-.40625 0-.609375.40625-.609375 1.21875v.3125c0 .417969.203125.625.609375.625 1.03125 0 1.546875-.3125 1.546875-.9375zm-1.546875 2.140625c-.40625 0-.609375.203125-.609375.609375v.9375c0 .40625.203125.609375.609375.609375h.3125v2.140625h-.921875c-.210937 0-.414063-.101563-.609375-.3125-.199219.210937-.402344.3125-.609375.3125h-.921875v-2.140625h.3125c.40625 0 .609375-.203125.609375-.609375v-1.546875c0-.195312-.203125-.398438-.609375-.609375.40625-.195313.609375-.398437.609375-.609375v-1.53125c0-.40625-.101563-.609375-.296875-.609375h-.625v-2.140625h.921875c.195313 0 .398437.105469.609375.3125.207031-.207031.613281-.3125 1.21875-.3125h.3125c1.632812 0 2.453125.714844 2.453125 2.140625v1.21875c0 .667969-.179687 1.179687-.53125 1.53125.351563.355469.53125.867187.53125 1.53125v.625c0 .40625.203125.609375.609375.609375v2.140625c-1.21875 0-1.828125-.507813-1.828125-1.53125v-1.84375c0-.613281-.515625-.921875-1.546875-.921875zm0 0" transform="translate(218.141742 249.264636)"/><path d="m6.046875-.015625h-.921875c-.199219-.0078125-.402344-.109375-.609375-.296875-.199219.199219-.605469.296875-1.21875.296875-.617187 0-1.023437-.101563-1.21875-.3125-.210937.210937-.414063.3125-.609375.3125h-.921875l-.015625-2.140625h.3125c.414062 0 .625-.203125.625-.609375v-1.546875c0-.1875-.210938-.382812-.625-.59375.414062-.195312.625-.398438.625-.609375v-1.546875c0-.40625-.210938-.609375-.625-.609375h-.3125l.015625-2.140625h.921875c.195312 0 .398438.105469.609375.3125.195313-.207031.601563-.3125 1.21875-.3125.613281 0 1.019531.105469 1.21875.3125.207031-.207031.414063-.3125.625-.3125h.90625v3.359375h-1.21875v-.609375c0-.40625-.203125-.609375-.609375-.609375h-.921875c-.417969 0-.625.40625-.625 1.21875l.015625.9375h.921875v-.3125h.609375v.3125c0 .210937.203125.414063.609375.609375-.40625.1875-.609375.390625-.609375.609375v.296875h-.609375v-.296875h-.921875l-.015625.90625c0 .824219.207031 1.234375.625 1.234375h.921875c.394531 0 .597656-.203125.609375-.609375v-.625h1.21875zm0 0" transform="translate(225.337729 249.264636)"/><path d="m5.140625-.015625h-.921875c-.210938 0-.414062-.101563-.609375-.3125-.210937.210937-.417969.3125-.625.3125h-.90625v-2.140625h.296875c.40625 0 .609375-.203125.609375-.609375v-1.546875c0-.195312-.203125-.394531-.609375-.59375.40625-.21875.609375-.425781.609375-.625v-1.53125c0-.40625-.203125-.609375-.609375-.609375s-.609375.203125-.609375.609375v.609375h-1.234375v-3.359375h2.46875c.195312 0 .398438.105469.609375.3125.207031-.207031.410156-.3125.609375-.3125h2.4375v3.359375h-1.21875v-.609375c0-.40625-.203125-.609375-.609375-.609375s-.609375.40625-.609375 1.21875v.921875c.007812.210938.210938.414062.609375.609375-.398437.199219-.601563.402344-.609375.609375v1.546875c0 .40625.203125.609375.609375.609375h.3125zm0 0" transform="translate(231.921526 249.264636)"/><path d="m5.140625-.015625h-.921875c-.210938 0-.414062-.101563-.609375-.3125-.210937.210937-.417969.3125-.625.3125h-.90625v-2.140625h.296875c.40625 0 .609375-.203125.609375-.609375v-1.546875c0-.195312-.203125-.394531-.609375-.59375.40625-.21875.609375-.425781.609375-.625v-1.53125c0-.40625-.203125-.609375-.609375-.609375s-.609375.203125-.609375.609375v.609375h-1.234375v-3.359375h2.46875c.195312 0 .398438.105469.609375.3125.207031-.207031.410156-.3125.609375-.3125h2.4375v3.359375h-1.21875v-.609375c0-.40625-.203125-.609375-.609375-.609375s-.609375.40625-.609375 1.21875v.921875c.007812.210938.210938.414062.609375.609375-.398437.199219-.601563.402344-.609375.609375v1.546875c0 .40625.203125.609375.609375.609375h.3125zm0 0" transform="translate(239.117513 249.264636)"/><path d="m6.046875-.015625h-.921875c-.199219-.0078125-.402344-.109375-.609375-.296875-.199219.199219-.605469.296875-1.21875.296875-.617187 0-1.023437-.101563-1.21875-.3125-.210937.210937-.414063.3125-.609375.3125h-.921875l-.015625-2.140625h.3125c.414062 0 .625-.203125.625-.609375v-1.546875c0-.1875-.210938-.382812-.625-.59375.414062-.195312.625-.398438.625-.609375v-1.546875c0-.40625-.210938-.609375-.625-.609375h-.3125l.015625-2.140625h.921875c.195312 0 .398438.105469.609375.3125.195313-.207031.601563-.3125 1.21875-.3125.613281 0 1.019531.105469 1.21875.3125.207031-.207031.414063-.3125.625-.3125h.90625v3.359375h-1.21875v-.609375c0-.40625-.203125-.609375-.609375-.609375h-.921875c-.417969 0-.625.40625-.625 1.21875l.015625.9375h.921875v-.3125h.609375v.3125c0 .210937.203125.414063.609375.609375-.40625.1875-.609375.390625-.609375.609375v.296875h-.609375v-.296875h-.921875l-.015625.90625c0 .824219.207031 1.234375.625 1.234375h.921875c.394531 0 .597656-.203125.609375-.609375v-.625h1.21875zm0 0" transform="translate(246.313512 249.264636)"/><path d="m3.59375-9.8125c.46875 0 .878906.058594 1.234375.171875v-.171875h1.21875v3.671875h-1.21875v-.3125c0-.8125-.414063-1.21875-1.234375-1.21875h-.609375c-.8125 0-1.21875.40625-1.21875 1.21875 0 .511719.34375.8125 1.03125.90625.164063-.070313.328125-.269531.484375-.59375.207031.40625.414062.609375.625.609375v.015625c1.425781.09375 2.140625.804687 2.140625 2.125v1.234375c0 1.429688-.820313 2.140625-2.453125 2.140625h-.609375c-.46875 0-.875-.0625-1.21875-.1875v.1875h-1.234375v-3.6875h1.234375v.3125c0 .824219.40625 1.234375 1.21875 1.234375h.609375c.820312 0 1.234375-.410156 1.234375-1.234375 0-.5-.351563-.796875-1.046875-.890625-.15625.074219-.324219.265625-.5.578125-.210938-.40625-.414062-.609375-.609375-.609375-1.429687-.09375-2.140625-.804688-2.140625-2.140625v-1.21875c0-1.425781.816406-2.140625 2.453125-2.140625zm0 0" transform="translate(252.897297 249.264636)"/><path d="m1.15625-3.578125v-.296875c0-.195312-.210938-.398438-.625-.609375.414062-.207031.625-.414063.625-.625v-.3125h.609375v.3125h3.0625v-.296875h.609375v.296875c0 .210937.203125.417969.609375.625-.40625.210937-.609375.414063-.609375.609375v.3125h-.609375v-.3125h-3.0625v.296875zm0 0" transform="translate(266.891864 249.264636)"/><path d="m3.59375-9.8125c.46875 0 .878906.058594 1.234375.171875v-.171875h1.21875v3.671875h-1.21875v-.3125c0-.8125-.414063-1.21875-1.234375-1.21875h-.609375c-.8125 0-1.21875.40625-1.21875 1.21875 0 .511719.34375.8125 1.03125.90625.164063-.070313.328125-.269531.484375-.59375.207031.40625.414062.609375.625.609375v.015625c1.425781.09375 2.140625.804687 2.140625 2.125v1.234375c0 1.429688-.820313 2.140625-2.453125 2.140625h-.609375c-.46875 0-.875-.0625-1.21875-.1875v.1875h-1.234375v-3.6875h1.234375v.3125c0 .824219.40625 1.234375 1.21875 1.234375h.609375c.820312 0 1.234375-.410156 1.234375-1.234375 0-.5-.351563-.796875-1.046875-.890625-.15625.074219-.324219.265625-.5.578125-.210938-.40625-.414062-.609375-.609375-.609375-1.429687-.09375-2.140625-.804688-2.140625-2.140625v-1.21875c0-1.425781.816406-2.140625 2.453125-2.140625zm0 0" transform="translate(280.886431 249.264636)"/><path d="m5.125-7.0625c0-.40625-.203125-.609375-.609375-.609375h-.3125l.015625-2.140625h.90625c.195312 0 .398438.105469.609375.3125.21875-.207031.425781-.3125.625-.3125h.90625v2.140625l-.296875-.015625c-.40625.011719-.609375.21875-.609375.625l-.015625 1.53125c0 .210938.207031.414062.625.609375-.417969.210937-.625.414063-.625.609375v2.15625c0 1.429688-.8125 2.140625-2.4375 2.140625-1.636719 0-2.453125-.710937-2.453125-2.140625v-2.15625c0-.195312-.203125-.398438-.609375-.609375.40625-.195313.609375-.398437.609375-.609375v-1.53125c0-.40625-.203125-.609375-.609375-.609375h-.3125v-2.140625h.9375c.1875 0 .382812.105469.59375.3125.21875-.207031.425781-.3125.625-.3125h.90625v2.140625l-.3125-.015625c-.40625.023438-.609375.230469-.609375.625v1.53125c0 .210938.203125.414062.609375.609375-.40625.210937-.609375.414063-.609375.609375v.921875c0 .824219.410156 1.234375 1.234375 1.234375.8125 0 1.21875-.410156 1.21875-1.234375v-.921875c0-.195312-.203125-.398438-.609375-.609375.40625-.195313.609375-.398437.609375-.609375zm0 0" transform="translate(287.470217 249.264636)"/><path d="m6.03125-6.453125c0 1.429687-.8125 2.140625-2.4375 2.140625h-.3125c-.40625 0-.609375.203125-.609375.609375v.9375c0 .40625.203125.609375.609375.609375h.3125v2.140625h-.921875c-.210937 0-.414063-.101563-.609375-.3125-.199219.210937-.402344.3125-.609375.3125h-.921875v-2.140625h.3125c.40625 0 .609375-.203125.609375-.609375v-1.546875c0-.195312-.203125-.398438-.609375-.609375.40625-.195313.609375-.398437.609375-.609375v-1.53125c0-.40625-.101563-.609375-.296875-.609375h-.625v-2.140625h.921875c.195313 0 .398437.105469.609375.3125.207031-.207031.613281-.3125 1.21875-.3125h.3125c1.625 0 2.4375.714844 2.4375 2.140625zm-1.21875 0c0-.8125-.40625-1.21875-1.21875-1.21875h-.3125c-.40625 0-.609375.40625-.609375 1.21875v.3125c0 .417969.203125.625.609375.625 1.019531 0 1.53125-.3125 1.53125-.9375zm0 0" transform="translate(295.278406 249.264636)"/><path d="m6.03125-6.453125c0 1.429687-.8125 2.140625-2.4375 2.140625h-.3125c-.40625 0-.609375.203125-.609375.609375v.9375c0 .40625.203125.609375.609375.609375h.3125v2.140625h-.921875c-.210937 0-.414063-.101563-.609375-.3125-.199219.210937-.402344.3125-.609375.3125h-.921875v-2.140625h.3125c.40625 0 .609375-.203125.609375-.609375v-1.546875c0-.195312-.203125-.398438-.609375-.609375.40625-.195313.609375-.398437.609375-.609375v-1.53125c0-.40625-.101563-.609375-.296875-.609375h-.625v-2.140625h.921875c.195313 0 .398437.105469.609375.3125.207031-.207031.613281-.3125 1.21875-.3125h.3125c1.625 0 2.4375.714844 2.4375 2.140625zm-1.21875 0c0-.8125-.40625-1.21875-1.21875-1.21875h-.3125c-.40625 0-.609375.40625-.609375 1.21875v.3125c0 .417969.203125.625.609375.625 1.019531 0 1.53125-.3125 1.53125-.9375zm0 0" transform="translate(301.851457 249.264636)"/><path d="m6.0625-.015625h-.921875c-.21875-.0078125-.421875-.109375-.609375-.296875-.210938.199219-.621094.296875-1.234375.296875-.617187 0-1.023437-.101563-1.21875-.3125-.21875.210937-.421875.3125-.609375.3125h-.921875l-.015625-2.140625h.3125c.414062 0 .625-.203125.625-.609375v-1.546875c0-.1875-.210938-.382812-.625-.59375.414062-.195312.625-.398438.625-.609375v-1.546875c0-.40625-.210938-.609375-.625-.609375h-.3125l.015625-2.140625h.921875c.195312 0 .398438.105469.609375.3125.207031-.207031.410156-.3125.609375-.3125h.921875v2.140625h-.3125c-.40625 0-.609375.203125-.609375.609375v1.546875c0 .199219.203125.402344.609375.609375-.40625.199219-.609375.402344-.609375.609375v.90625c0 .824219.203125 1.234375.609375 1.234375h.921875c.40625 0 .609375-.203125.609375-.609375v-.625h1.234375zm0 0" transform="translate(308.424508 249.264636)"/><path d="m3.59375-2.15625v2.140625h-.921875c-.1875 0-.386719-.101563-.59375-.3125-.210937.210937-.414063.3125-.609375.3125h-.9375v-2.140625h.3125c.414062 0 .625-.203125.625-.609375v-1.53125c0-.195313-.210938-.398437-.625-.609375.414062-.195312.625-.398438.625-.609375v-1.546875c0-.40625-.210938-.609375-.625-.609375h-.3125v-2.140625h.9375c.195312 0 .398438.105469.609375.3125.195313-.207031.394531-.3125.59375-.3125h.921875v2.140625h-.296875c-.40625 0-.609375.203125-.609375.609375v1.546875c0 .210937.203125.414063.609375.609375-.40625.210938-.609375.414062-.609375.609375v1.53125c0 .40625.203125.609375.609375.609375zm0 0" transform="translate(315.019028 249.264636)"/><path d="m6.046875-.015625h-.921875c-.199219-.0078125-.402344-.109375-.609375-.296875-.199219.199219-.605469.296875-1.21875.296875-.617187 0-1.023437-.101563-1.21875-.3125-.210937.210937-.414063.3125-.609375.3125h-.921875l-.015625-2.140625h.3125c.414062 0 .625-.203125.625-.609375v-1.546875c0-.1875-.210938-.382812-.625-.59375.414062-.195312.625-.398438.625-.609375v-1.546875c0-.40625-.210938-.609375-.625-.609375h-.3125l.015625-2.140625h.921875c.195312 0 .398438.105469.609375.3125.195313-.207031.601563-.3125 1.21875-.3125.613281 0 1.019531.105469 1.21875.3125.207031-.207031.414063-.3125.625-.3125h.90625v3.359375h-1.21875v-.609375c0-.40625-.203125-.609375-.609375-.609375h-.921875c-.417969 0-.625.40625-.625 1.21875l.015625.9375h.921875v-.3125h.609375v.3125c0 .210937.203125.414063.609375.609375-.40625.1875-.609375.390625-.609375.609375v.296875h-.609375v-.296875h-.921875l-.015625.90625c0 .824219.207031 1.234375.625 1.234375h.921875c.394531 0 .597656-.203125.609375-.609375v-.625h1.21875zm0 0" transform="translate(319.154053 249.264636)"/><path d="m3.59375-9.8125c.46875 0 .878906.058594 1.234375.171875v-.171875h1.21875v3.671875h-1.21875v-.3125c0-.8125-.414063-1.21875-1.234375-1.21875h-.609375c-.8125 0-1.21875.40625-1.21875 1.21875 0 .511719.34375.8125 1.03125.90625.164063-.070313.328125-.269531.484375-.59375.207031.40625.414062.609375.625.609375v.015625c1.425781.09375 2.140625.804687 2.140625 2.125v1.234375c0 1.429688-.820313 2.140625-2.453125 2.140625h-.609375c-.46875 0-.875-.0625-1.21875-.1875v.1875h-1.234375v-3.6875h1.234375v.3125c0 .824219.40625 1.234375 1.21875 1.234375h.609375c.820312 0 1.234375-.410156 1.234375-1.234375 0-.5-.351563-.796875-1.046875-.890625-.15625.074219-.324219.265625-.5.578125-.210938-.40625-.414062-.609375-.609375-.609375-1.429687-.09375-2.140625-.804688-2.140625-2.140625v-1.21875c0-1.425781.816406-2.140625 2.453125-2.140625zm0 0" transform="translate(325.737838 249.264636)"/><path d="m6.796875-9.078125c0-1.15625-.574219-1.734375-1.71875-1.734375-1.15625 0-1.734375.578125-1.734375 1.734375v1.296875c0 .292969.285156.578125.859375.859375-.574219.292969-.859375.578125-.859375.859375v1.296875c0 1.148437.578125 1.71875 1.734375 1.71875 1.144531 0 1.71875-.570313 1.71875-1.71875v-.421875h1.71875v2.140625c0 2.023437-1.148437 3.03125-3.4375 3.03125-2.304687 0-3.453125-1.007813-3.453125-3.03125v-3.015625c0-.28125-.292969-.566406-.875-.859375.582031-.28125.875-.566406.875-.859375v-3.03125c0-2 1.148438-3 3.453125-3 .65625 0 1.226563.085938 1.71875.25v-.25h1.71875v5.171875h-1.71875zm0 0" transform="translate(120.992234 229.382709)"/><path d="m9.390625-6.9375c-.585937.292969-.875.585938-.875.875v3.015625c0 2.011719-1.148437 3.015625-3.4375 3.015625-2.304687 0-3.453125-1.003906-3.453125-3.015625v-3.015625c0-.289062-.292969-.582031-.875-.875.582031-.28125.875-.566406.875-.859375v-3.015625c0-2.007812 1.148438-3.015625 3.453125-3.015625 2.289063 0 3.4375 1.007813 3.4375 3.015625v3.015625c0 .292969.289063.578125.875.859375zm-2.59375-.859375v-1.28125c0-1.15625-.574219-1.734375-1.71875-1.734375-1.15625 0-1.734375.578125-1.734375 1.734375v1.28125c0 .292969.285156.578125.859375.859375-.574219.292969-.859375.585938-.859375.875v1.296875c0 1.148437.578125 1.71875 1.734375 1.71875 1.144531 0 1.71875-.570313 1.71875-1.71875v-1.296875c0-.289062-.289063-.582031-.859375-.875.570312-.28125.859375-.566406.859375-.859375zm0 0" transform="translate(130.269878 229.382709)"/><path d="m7.21875-9.9375c0-.582031-.289062-.875-.859375-.875h-.4375l.015625-3.015625h1.28125c.28125 0 .566406.148437.859375.4375.3125-.289063.609375-.4375.890625-.4375h1.28125v3.015625l-.4375-.015625c-.5625.011719-.84375.308594-.84375.890625l-.015625 2.140625c0 .292969.285156.578125.859375.859375-.574219.292969-.859375.585938-.859375.875v3.015625c0 2.011719-1.152344 3.015625-3.453125 3.015625-2.304688 0-3.453125-1.003906-3.453125-3.015625v-3.015625c0-.289062-.289063-.582031-.859375-.875.570312-.28125.859375-.566406.859375-.859375v-2.140625c0-.582031-.289063-.875-.859375-.875h-.4375v-3.015625h1.3125c.269531 0 .550781.148437.84375.4375.3125-.289063.601562-.4375.875-.4375h1.296875v3.015625l-.453125-.015625c-.574219.023437-.859375.320313-.859375.890625v2.140625c0 .292969.285156.578125.859375.859375-.574219.292969-.859375.585938-.859375.875v1.296875c0 1.148437.578125 1.71875 1.734375 1.71875 1.144531 0 1.71875-.570313 1.71875-1.71875v-1.296875c0-.289062-.289062-.582031-.859375-.875.570313-.28125.859375-.566406.859375-.859375zm0 0" transform="translate(140.410201 229.382709)"/><path d="m3.765625-6.0625v1.078125h.015625v1.078125c0 .574219.285156.859375.859375.859375h.4375v3.03125h-1.3125c-.292969 0-.574219-.144531-.84375-.4375-.3125.292969-.605469.4375-.875.4375h-1.296875v-3.03125h.453125c.570313 0 .859375-.285156.859375-.859375v-2.15625c0-.28125-.289062-.566406-.859375-.859375.570313-.28125.859375-.566406.859375-.859375v-2.15625c0-.582031-.289062-.875-.859375-.875h-.453125v-3h1.296875c.289063 0 .582031.140625.875.421875.269531-.28125.550781-.421875.84375-.421875h.859375l3.453125 10.34375v-2.59375c0-.28125-.289063-.566406-.859375-.859375.5625-.28125.851562-.566406.875-.859375v-2.15625c0-.582031-.289062-.875-.859375-.875h-.4375v-3h1.296875c.289062 0 .582031.140625.875.421875.28125-.28125.566406-.421875.859375-.421875h1.28125v3h-.421875c-.574219 0-.859375.292969-.859375.875v2.15625c0 .292969.285156.578125.859375.859375-.574219.292969-.859375.578125-.859375.859375v2.15625c0 .574219.285156.859375.859375.859375h.421875v3.03125h-1.28125c-.28125 0-.570313-.144531-.859375-.4375-.304688.292969-.59375.4375-.875.4375h-.875l-3.453125-10.359375.015625 1.5h-.015625v1.09375c0 .292969.285156.578125.859375.859375-.574219.292969-.859375.578125-.859375.859375zm0 0" transform="translate(151.413214 229.382709)"/><path d="m7.234375-.03125h-1.28125c-.292969 0-.578125-.140625-.859375-.421875-.304688.28125-.601562.421875-.890625.421875h-1.265625l-.015625-3.015625h.421875c.570312 0 .859375-.285156.859375-.859375v-2.15625c0-.289062-.289063-.578125-.859375-.859375.570312-.300781.859375-.59375.859375-.875v-2.140625c0-.582031-.289063-.875-.859375-.875-.5625 0-.84375.292969-.84375.875v.859375h-1.75v-4.75h3.46875c.28125 0 .570312.148437.875.4375.289062-.289063.578125-.4375.859375-.4375h3.4375v4.75h-1.734375v-.859375c0-.582031-.28125-.875-.84375-.875-.585938 0-.875.578125-.875 1.734375v1.28125c.019531.292969.3125.578125.875.859375-.5625.28125-.855469.574219-.875.875v2.15625c0 .574219.285156.859375.859375.859375h.4375zm0 0" transform="translate(163.278906 229.382709)"/><path d="m6.796875-9.078125c0-1.15625-.574219-1.734375-1.71875-1.734375h-.453125c-.574219 0-.859375.578125-.859375 1.734375v.421875c0 .585938.285156.875.859375.875 1.445312 0 2.171875-.429688 2.171875-1.296875zm-2.171875 3.015625c-.574219 0-.859375.289062-.859375.859375v1.296875c0 .574219.285156.859375.859375.859375h.453125v3.015625h-1.3125c-.292969 0-.578125-.140625-.859375-.421875-.28125.28125-.570312.421875-.859375.421875h-1.296875v-3.015625h.4375c.570312 0 .859375-.285156.859375-.859375v-2.15625c0-.289062-.289063-.582031-.859375-.875.570312-.28125.859375-.566406.859375-.859375v-2.140625c0-.582031-.140625-.875-.421875-.875h-.875v-3.015625h1.296875c.28125 0 .566406.148437.859375.4375.289062-.289063.863281-.4375 1.71875-.4375h.453125c2.289063 0 3.4375 1.007813 3.4375 3.015625v1.734375c0 .929687-.25 1.640625-.75 2.140625.5.511719.75 1.234375.75 2.171875v.859375c0 .574219.289063.859375.875.859375v3.015625c-1.730469 0-2.59375-.71875-2.59375-2.15625v-2.578125c0-.863281-.726563-1.296875-2.171875-1.296875zm0 0" transform="translate(173.419229 229.382709)"/><path d="m6.75-7.21875c.132812.105469.296875.199219.484375.28125-.585937.292969-.875.585938-.875.875v2.15625c0 .574219.285156.859375.859375.859375h.421875v3.015625h-1.265625c-.28125 0-.574219-.140625-.875-.421875-.28125.28125-.574219.421875-.875.421875h-1.28125v-3.015625h.421875c.570313 0 .859375-.285156.859375-.859375v-2.15625c0-.28125-.289062-.566406-.859375-.859375.09375-.050781.175781-.097656.25-.140625.070313-.039062.144531-.085938.21875-.140625l-2.1875-2.734375.015625-.015625c-.585938-.570313-1.023438-.859375-1.3125-.859375v-3.015625h1.296875c.269531 0 .5625.148437.875.4375.269531-.289063.550781-.4375.84375-.4375h.859375l.015625 3.015625c-.65625 0-.984375.164062-.984375.484375 0 .09375.039062.226563.125.390625h-.015625l1.734375 2.140625 1.71875-2.140625.015625-.015625c.0625-.132813.09375-.257813.09375-.375 0-.320313-.320313-.484375-.953125-.484375l-.015625-3.015625h.859375c.269531 0 .5625.148437.875.4375.269531-.289063.554688-.4375.859375-.4375h1.296875v3.015625c-.304688 0-.730469.292969-1.28125.875h-.015625zm0 0" transform="translate(183.559551 229.382709)"/><path d="m5.078125-13.828125c.65625 0 1.226563.085937 1.71875.25v-.25h1.71875v5.171875h-1.71875v-.421875c0-1.15625-.574219-1.734375-1.71875-1.734375h-.875c-1.148437 0-1.71875.578125-1.71875 1.734375 0 .71875.488281 1.136719 1.46875 1.25.226563-.09375.453125-.367187.671875-.828125.289062.574219.582031.859375.875.859375v.015625c2.007812.148438 3.015625 1.152344 3.015625 3.015625v1.71875c0 2.011719-1.148437 3.015625-3.4375 3.015625h-.875c-.667969 0-1.242187-.082031-1.71875-.25v.25h-1.734375v-5.171875h1.734375v.4375c0 1.148437.570313 1.71875 1.71875 1.71875h.875c1.144531 0 1.71875-.570313 1.71875-1.71875 0-.707031-.492187-1.132813-1.46875-1.28125-.21875.105469-.453125.386719-.703125.84375-.292969-.570313-.578125-.859375-.859375-.859375v-.015625c-2.011719-.125-3.015625-1.125-3.015625-3v-1.734375c0-2.007812 1.148438-3.015625 3.453125-3.015625zm0 0" transform="translate(205.005584 229.382709)"/><path d="m7.234375-.03125h-1.28125c-.292969 0-.578125-.140625-.859375-.421875-.304688.28125-.601562.421875-.890625.421875h-1.265625l-.015625-3.015625h.421875c.570312 0 .859375-.285156.859375-.859375v-2.15625c0-.289062-.289063-.578125-.859375-.859375.570312-.300781.859375-.59375.859375-.875v-2.140625c0-.582031-.289063-.875-.859375-.875-.5625 0-.84375.292969-.84375.875v.859375h-1.75v-4.75h3.46875c.28125 0 .570312.148437.875.4375.289062-.289063.578125-.4375.859375-.4375h3.4375v4.75h-1.734375v-.859375c0-.582031-.28125-.875-.84375-.875-.585938 0-.875.578125-.875 1.734375v1.28125c.019531.292969.3125.578125.875.859375-.5625.28125-.855469.574219-.875.875v2.15625c0 .574219.285156.859375.859375.859375h.4375zm0 0" transform="translate(214.283228 229.382709)"/><path d="m9.390625-6.9375c-.585937.292969-.875.585938-.875.875v3.015625c0 2.011719-1.148437 3.015625-3.4375 3.015625-2.304687 0-3.453125-1.003906-3.453125-3.015625v-3.015625c0-.289062-.292969-.582031-.875-.875.582031-.28125.875-.566406.875-.859375v-3.015625c0-2.007812 1.148438-3.015625 3.453125-3.015625 2.289063 0 3.4375 1.007813 3.4375 3.015625v3.015625c0 .292969.289063.578125.875.859375zm-2.59375-.859375v-1.28125c0-1.15625-.574219-1.734375-1.71875-1.734375-1.15625 0-1.734375.578125-1.734375 1.734375v1.28125c0 .292969.285156.578125.859375.859375-.574219.292969-.859375.585938-.859375.875v1.296875c0 1.148437.578125 1.71875 1.734375 1.71875 1.144531 0 1.71875-.570313 1.71875-1.71875v-1.296875c0-.289062-.289063-.582031-.859375-.875.570312-.28125.859375-.566406.859375-.859375zm0 0" transform="translate(224.423551 229.382709)"/><path d="m6.796875-9.078125c0-1.15625-.574219-1.734375-1.71875-1.734375h-.453125c-.574219 0-.859375.578125-.859375 1.734375v.421875c0 .585938.285156.875.859375.875 1.445312 0 2.171875-.429688 2.171875-1.296875zm-2.171875 3.015625c-.574219 0-.859375.289062-.859375.859375v1.296875c0 .574219.285156.859375.859375.859375h.453125v3.015625h-1.3125c-.292969 0-.578125-.140625-.859375-.421875-.28125.28125-.570312.421875-.859375.421875h-1.296875v-3.015625h.4375c.570312 0 .859375-.285156.859375-.859375v-2.15625c0-.289062-.289063-.582031-.859375-.875.570312-.28125.859375-.566406.859375-.859375v-2.140625c0-.582031-.140625-.875-.421875-.875h-.875v-3.015625h1.296875c.28125 0 .566406.148437.859375.4375.289062-.289063.863281-.4375 1.71875-.4375h.453125c2.289063 0 3.4375 1.007813 3.4375 3.015625v1.734375c0 .929687-.25 1.640625-.75 2.140625.5.511719.75 1.234375.75 2.171875v.859375c0 .574219.289063.859375.875.859375v3.015625c-1.730469 0-2.59375-.71875-2.59375-2.15625v-2.578125c0-.863281-.726563-1.296875-2.171875-1.296875zm0 0" transform="translate(234.563874 229.382709)"/><path d="m8.515625-.015625h-1.296875c-.28125-.0195312-.5625-.160156-.84375-.421875-.292969.273438-.871094.40625-1.734375.40625-.867187 0-1.4375-.140625-1.71875-.421875-.292969.292969-.578125.4375-.859375.4375h-1.296875l-.015625-3.03125h.453125c.570313 0 .859375-.285156.859375-.859375v-2.15625c0-.28125-.289062-.566406-.859375-.859375.570313-.28125.859375-.566406.859375-.859375v-2.15625c0-.582031-.289062-.875-.859375-.875h-.453125l.015625-3h1.296875c.289062 0 .578125.140625.859375.421875.28125-.28125.851563-.421875 1.71875-.421875.875 0 1.453125.140625 1.734375.421875.28125-.28125.566406-.421875.859375-.421875h1.28125v4.734375h-1.703125l-.015625-.859375c0-.582031-.28125-.875-.84375-.875h-1.3125c-.585937 0-.875.578125-.875 1.734375l.015625 1.296875h1.3125v-.4375h.84375l.015625.4375c0 .292969.285156.578125.859375.859375-.574219.261719-.859375.546875-.859375.859375l-.015625.4375h-.84375v-.4375h-1.3125l-.015625 1.296875c0 1.148437.289063 1.71875.875 1.71875h1.3125c.550781 0 .835937-.285156.859375-.859375v-.859375h1.703125zm0 0" transform="translate(244.704197 229.382709)"/></g></svg>